<svg version="1.1" width="369.091" height="119.394" viewBox="0 0 369.091 119.394" xmlns="http://www.w3.org/2000/svg" xmlns:xlink="http://www.w3.org/1999/xlink" overflow="hidden"><g><g id="Capa_1"><g><g><path d=" M 54.938 42.323 C 54.645 41.602 55.089 40.633 55.089 40.633 C 55.617 40.468 56.604 40.571 56.901 41.258 C 57.221 42.002 56.901 42.642 56.047 43.154 C 56.047 43.153 55.507 42.962 54.938 42.323 Z" fill="#50565B" fill-rule="evenodd"/><path d=" M 80.235 85.497 L 75.011 89.659 L 74.983 46.696 L 80.235 46.696 Z" fill="#50565B" fill-rule="evenodd"/><path d=" M 83.601 81.75 L 83.615 46.696 L 87.875 46.696 L 87.917 73.442 C 87.095 75.972 85.753 78.73 83.601 81.75 Z" fill="#50565B" fill-rule="evenodd"/><path d=" M 66.422 85.892 L 71.717 90.057 L 71.717 46.696 L 66.422 46.696 Z" fill="#50565B" fill-rule="evenodd"/><path d=" M 63.459 82.963 L 63.428 46.695 L 58.729 46.695 L 58.729 75.243 C 58.908 77.169 62.351 82.051 63.459 82.963 Z" fill="#50565B" fill-rule="evenodd"/><path d=" M 73.101 95.567 C 53.32 95.567 37.229 79.475 37.229 59.696 C 37.229 39.918 53.32 23.827 73.101 23.827 C 92.879 23.827 108.97 39.918 108.97 59.696 C 108.97 79.475 92.879 95.567 73.101 95.567 L 73.101 96.837 C 93.58 96.837 110.24 80.176 110.24 59.696 C 110.24 39.217 93.58 22.557 73.101 22.557 C 52.62 22.557 35.959 39.217 35.959 59.696 C 35.959 80.175 52.619 96.837 73.101 96.837 L 73.101 95.567 Z" fill="#50565B"/><path d=" M 73.101 109.653 C 45.551 109.653 23.139 87.242 23.139 59.696 C 23.139 32.15 45.551 9.741 73.101 9.741 C 100.648 9.741 123.059 32.15 123.059 59.696 C 123.059 87.242 100.648 109.653 73.101 109.653 L 73.101 111.297 C 101.554 111.297 124.703 88.149 124.703 59.696 C 124.703 31.243 101.554 8.097 73.101 8.097 C 44.645 8.097 21.497 31.243 21.497 59.696 C 21.497 88.149 44.645 111.297 73.101 111.297 L 73.101 109.653 Z" fill="#50565B"/><path d=" M 30.561 74.323 C 31.687 75.424 32.258 76.182 32.875 77.63 C 33.426 78.921 33.543 79.751 33.619 81.153 L 36.173 80.021 C 35.229 78.974 34.7 78.329 34.129 77.039 C 33.497 75.608 33.268 74.707 33.167 73.149 L 30.561 74.323 Z" fill="#50565B" fill-rule="evenodd"/><path d=" M 30.396 79.975 C 31.485 78.84 32.25 78.263 33.703 77.661 C 34.999 77.121 35.824 77.005 37.225 76.917 L 36.096 74.363 C 35.053 75.312 34.396 75.827 33.112 76.405 C 31.687 77.047 30.78 77.255 29.221 77.368 L 30.396 79.975 Z" fill="#50565B" fill-rule="evenodd"/><path d=" M 115.534 74.323 C 114.411 75.427 113.833 76.182 113.22 77.63 C 112.667 78.924 112.548 79.751 112.475 81.153 L 109.921 80.021 C 110.854 78.966 111.402 78.332 111.963 77.039 C 112.588 75.605 112.827 74.707 112.927 73.149 L 115.534 74.323 Z" fill="#50565B" fill-rule="evenodd"/><path d=" M 115.698 79.975 C 114.604 78.843 113.847 78.26 112.391 77.661 C 111.092 77.127 110.27 76.999 108.869 76.917 L 109.998 74.363 C 111.038 75.315 111.698 75.822 112.983 76.405 C 114.405 77.052 115.314 77.252 116.873 77.368 L 115.698 79.975 Z" fill="#50565B" fill-rule="evenodd"/><path d=" M 52.965 95.459 C 53.636 95.092 53.963 95.425 54.131 95.209 C 54.256 95.05 54.111 94.981 53.923 94.836 C 53.673 94.64 53.398 94.483 53.147 94.29 C 52.892 94.089 52.672 93.858 52.414 93.656 C 52.31 93.574 52.073 93.344 51.934 93.519 C 51.678 93.849 52.844 94.202 52.159 95.082 C 52.043 95.23 51.769 95.543 51.013 95.961 L 47.578 97.852 C 47.498 97.898 47.362 98 47.307 97.96 C 47.253 97.917 47.31 97.752 47.335 97.665 L 48.532 93.755 C 48.757 93.01 48.984 92.481 49.203 92.199 C 49.511 91.806 49.933 92.364 50.13 92.111 C 50.255 91.955 50.204 91.926 49.92 91.705 C 49.777 91.597 49.49 91.432 48.922 90.988 C 48.62 90.752 48.348 90.476 48.055 90.249 C 47.921 90.147 47.705 89.857 47.529 90.078 C 47.478 90.147 47.55 90.292 47.569 90.323 C 47.859 90.698 47.905 90.9 47.771 91.381 L 45.729 98.548 C 45.584 99.067 45.598 99.229 45.69 99.299 C 45.787 99.376 45.875 99.354 46.162 99.189 L 52.965 95.459 Z" fill="#50565B" fill-rule="evenodd"/><path d=" M 61.896 99.156 C 62.115 98.28 62.786 98.9 62.894 98.462 C 62.928 98.326 62.877 98.298 62.647 98.241 C 62.473 98.198 62.329 98.212 61.401 97.978 C 60.983 97.876 60.361 97.671 59.925 97.563 C 59.695 97.506 59.553 97.566 59.525 97.671 C 59.425 98.074 60.739 98.069 60.495 99.047 L 59.139 104.492 C 58.789 105.896 58.113 105.066 57.979 105.598 C 57.962 105.665 58.013 105.74 58.156 105.777 C 58.759 105.924 59.227 105.993 59.568 106.078 C 60.115 106.215 60.759 106.425 62.42 106.841 C 63.316 107.063 64.197 106.28 64.422 105.382 C 64.477 105.163 64.408 105.109 64.365 105.098 C 63.95 104.995 63.725 106.539 61.015 105.866 C 60.228 105.67 60.373 105.265 60.552 104.553 L 61.896 99.156 Z" fill="#50565B" fill-rule="evenodd"/><path d=" M 68.429 100.541 C 68.487 99.723 68.532 99.716 69.891 99.811 C 72.061 99.961 71.088 101.287 71.614 101.321 C 71.874 101.341 71.845 100.945 71.845 100.792 L 71.882 99.618 C 71.89 99.51 71.819 99.388 71.674 99.376 C 70.684 99.308 69.904 99.3 69.106 99.245 C 67.386 99.123 66.582 99.02 66.121 98.986 C 65.962 98.977 65.865 99.066 65.86 99.171 C 65.825 99.647 67.122 99.357 67.048 100.42 L 66.661 105.958 C 66.558 107.399 65.751 106.703 65.711 107.246 C 65.705 107.317 65.771 107.383 65.916 107.391 C 66.535 107.434 67.01 107.422 67.357 107.446 C 67.919 107.486 68.59 107.58 70.3 107.699 C 71.221 107.764 71.952 106.841 72.017 105.916 C 72.033 105.691 71.955 105.652 71.913 105.649 C 71.482 105.618 71.534 107.178 68.745 106.985 C 67.937 106.928 68.012 106.505 68.062 105.771 L 68.167 104.255 C 68.215 103.57 68.181 103.425 68.698 103.459 L 69.528 103.519 C 70.697 103.601 70.296 104.832 70.654 104.858 C 70.925 104.879 70.887 104.446 70.887 104.293 L 70.955 102.18 C 70.967 101.863 70.841 101.876 70.762 101.87 C 70.537 101.853 70.426 102.942 69.459 102.874 L 68.752 102.823 C 68.268 102.789 68.273 102.707 68.311 102.197 L 68.429 100.541 Z" fill="#50565B" fill-rule="evenodd"/><path d=" M 74.44 106.235 C 74.545 107.438 73.448 107.321 73.491 107.794 C 73.508 107.996 73.726 107.916 73.852 107.904 C 74.153 107.879 74.452 107.805 74.813 107.773 C 75.205 107.74 75.588 107.753 76.14 107.706 C 76.286 107.694 76.567 107.681 76.552 107.516 C 76.504 106.961 75.137 107.888 74.941 105.62 L 74.587 101.602 C 74.578 101.497 74.593 101.411 74.661 101.406 C 74.716 101.4 74.789 101.454 74.875 101.542 L 80.814 107.215 C 80.899 107.303 80.961 107.368 81.118 107.355 C 81.254 107.343 81.246 107.247 81.223 106.988 L 80.643 100.36 C 80.535 99.118 81.513 99.32 81.482 98.964 C 81.479 98.93 81.468 98.811 81.253 98.827 C 81.154 98.839 80.765 98.918 80.058 98.98 C 79.285 99.048 78.954 99.032 78.775 99.045 C 78.628 99.06 78.604 99.179 78.613 99.262 C 78.647 99.651 79.998 99.319 80.092 100.393 L 80.436 104.329 C 80.461 104.624 80.454 104.769 80.385 104.775 C 80.316 104.781 80.168 104.65 80.01 104.499 L 75.042 99.683 C 74.82 99.476 74.948 99.382 74.587 99.413 C 73.993 99.464 73.706 99.538 73.413 99.563 C 73.199 99.581 72.995 99.552 72.781 99.572 C 72.644 99.583 72.596 99.682 72.607 99.788 C 72.656 100.353 73.847 99.476 74.045 101.747 L 74.44 106.235 Z" fill="#50565B" fill-rule="evenodd"/><path d=" M 88.377 97.148 C 88.357 97.091 88.28 97.103 88.227 97.12 C 88.077 97.166 88.178 97.544 87.974 97.606 C 87.653 97.706 86.609 97.265 85.307 97.667 C 82.591 98.496 82.247 101.343 82.83 103.247 C 83.102 104.143 84.476 106.898 87.632 105.932 C 89.93 105.233 90.547 103.168 90.406 102.716 C 90.386 102.648 90.273 102.622 90.218 102.636 C 89.937 102.724 89.658 104.434 87.989 104.943 C 85.93 105.574 84.382 103.589 83.891 101.991 C 83.428 100.473 83.815 98.617 85.399 98.134 C 86.65 97.753 87.901 98.446 88.77 99.373 C 88.893 99.495 89.041 99.712 89.211 99.66 C 89.396 99.603 89.273 99.356 89.229 99.245 L 88.377 97.148 Z" fill="#50565B" fill-rule="evenodd"/><path d=" M 91.625 96.438 C 91.097 95.443 92.043 95.419 91.853 95.064 C 91.785 94.939 91.725 94.945 91.426 95.104 C 90.861 95.406 90.525 95.635 90.167 95.83 C 89.816 96.015 89.407 96.177 89.018 96.384 C 88.93 96.433 88.663 96.531 88.759 96.711 C 88.952 97.077 89.923 96.188 90.428 97.14 L 93.101 102.167 C 93.63 103.162 92.769 103.27 92.964 103.637 C 92.993 103.689 93.05 103.751 93.141 103.703 C 93.4 103.566 93.803 103.296 94.233 103.068 C 95.009 102.656 95.398 102.502 95.768 102.306 C 95.996 102.184 96.064 102.095 96.001 101.979 C 95.825 101.644 94.966 102.718 94.28 101.433 L 91.625 96.438 Z" fill="#50565B" fill-rule="evenodd"/><path d=" M 27.126 54.878 C 26.452 54.554 26.552 54.17 26.278 54.143 C 26.076 54.122 26.099 54.258 26.08 54.457 C 26.054 54.724 26.074 54.994 26.048 55.259 C 26.02 55.534 25.945 55.795 25.918 56.069 C 25.906 56.183 25.843 56.457 26.068 56.479 C 26.483 56.519 26.138 55.518 27.254 55.628 C 27.443 55.649 27.857 55.708 28.624 56.071 L 32.096 57.732 C 32.178 57.769 32.34 57.823 32.334 57.879 C 32.328 57.937 32.158 57.967 32.07 57.987 L 28.132 58.837 C 27.385 59.002 26.817 59.07 26.457 59.035 C 25.963 58.985 26.196 58.433 25.877 58.402 C 25.676 58.381 25.682 58.43 25.65 58.733 C 25.635 58.885 25.656 59.164 25.595 59.772 C 25.561 60.093 25.482 60.412 25.45 60.725 C 25.435 60.867 25.313 61.151 25.597 61.179 C 25.68 61.188 25.762 61.072 25.776 61.044 C 25.936 60.667 26.079 60.548 26.558 60.432 L 33.692 58.761 C 34.207 58.64 34.335 58.558 34.343 58.462 C 34.354 58.358 34.289 58.305 33.99 58.168 L 27.126 54.878 Z" fill="#50565B" fill-rule="evenodd"/><path d=" M 32.767 54.12 C 33.944 54.391 33.532 55.231 33.996 55.337 C 34.192 55.382 34.175 55.185 34.2 55.083 C 34.258 54.833 34.268 54.573 34.337 54.275 C 34.411 53.953 34.53 53.65 34.636 53.197 C 34.664 53.076 34.727 52.848 34.568 52.811 C 34.022 52.685 34.537 54.049 32.316 53.538 L 28.386 52.63 C 28.284 52.607 28.207 52.569 28.218 52.513 C 28.23 52.468 28.301 52.425 28.409 52.383 L 35.443 49.323 C 35.551 49.279 35.631 49.249 35.662 49.12 C 35.687 49.009 35.594 48.987 35.341 48.928 L 28.859 47.432 C 27.644 47.151 28.102 46.431 27.755 46.349 C 27.721 46.342 27.605 46.315 27.565 46.492 C 27.544 46.574 27.517 46.91 27.383 47.491 C 27.236 48.13 27.127 48.387 27.093 48.535 C 27.067 48.655 27.175 48.71 27.255 48.728 C 27.636 48.816 27.69 47.64 28.741 47.882 L 32.589 48.772 C 32.879 48.837 33.013 48.888 33.001 48.944 C 32.986 49 32.821 49.079 32.634 49.162 L 26.677 51.7 C 26.42 51.816 26.364 51.687 26.295 51.982 C 26.185 52.473 26.173 52.723 26.119 52.963 C 26.076 53.138 25.994 53.294 25.951 53.471 C 25.926 53.581 26.009 53.65 26.113 53.672 C 26.668 53.8 26.156 52.592 28.374 53.104 L 32.767 54.12 Z" fill="#50565B" fill-rule="evenodd"/><path d=" M 29.71 44.154 C 28.641 43.805 29.267 43.26 28.883 43.135 C 28.746 43.091 28.709 43.13 28.621 43.4 C 28.453 43.915 28.393 44.254 28.288 44.579 C 28.186 44.895 28.027 45.231 27.913 45.584 C 27.885 45.665 27.779 45.88 27.971 45.942 C 28.366 46.07 28.379 44.947 29.409 45.282 L 34.823 47.041 C 35.895 47.39 35.389 47.944 35.784 48.071 C 35.841 48.09 35.927 48.097 35.952 48.016 C 36.029 47.782 36.108 47.379 36.236 46.991 C 36.464 46.288 36.617 45.968 36.728 45.635 C 36.793 45.428 36.774 45.331 36.651 45.291 C 36.29 45.173 36.481 46.352 35.093 45.902 L 29.71 44.154 Z" fill="#50565B" fill-rule="evenodd"/><path d=" M 32.38 37.41 C 31.846 36.892 32.059 36.559 31.809 36.449 C 31.623 36.366 31.604 36.503 31.522 36.684 C 31.414 36.927 31.348 37.189 31.241 37.432 C 31.13 37.684 30.979 37.907 30.865 38.159 C 30.819 38.263 30.675 38.499 30.883 38.591 C 31.261 38.761 31.249 37.705 32.268 38.16 C 32.441 38.237 32.814 38.422 33.425 39.006 L 36.189 41.66 C 36.253 41.72 36.39 41.822 36.365 41.874 C 36.343 41.927 36.172 41.902 36.087 41.894 L 32.095 41.467 C 31.338 41.391 30.779 41.277 30.451 41.132 C 29.996 40.93 30.391 40.481 30.098 40.352 C 29.913 40.269 29.905 40.317 29.783 40.595 C 29.721 40.734 29.652 41.004 29.405 41.558 C 29.274 41.854 29.097 42.13 28.972 42.414 C 28.912 42.545 28.708 42.775 28.966 42.892 C 29.043 42.924 29.159 42.841 29.18 42.821 C 29.447 42.514 29.62 42.446 30.11 42.485 L 37.377 43.135 C 37.9 43.182 38.049 43.142 38.088 43.057 C 38.128 42.96 38.082 42.889 37.844 42.667 L 32.38 37.41 Z" fill="#50565B" fill-rule="evenodd"/><path d=" M 34.376 34.949 C 33.688 34.504 33.699 34.464 34.325 33.502 C 35.322 31.967 36.082 33.343 36.326 32.969 C 36.443 32.785 36.091 32.613 35.957 32.536 L 34.95 31.928 C 34.862 31.871 34.725 31.862 34.657 31.965 C 34.202 32.664 33.886 33.24 33.519 33.805 C 32.729 35.023 32.317 35.571 32.104 35.897 C 32.033 36.008 32.07 36.123 32.161 36.182 C 32.558 36.441 32.823 35.334 33.719 35.914 L 38.377 38.938 C 39.588 39.727 38.658 39.983 39.115 40.278 C 39.176 40.318 39.258 40.301 39.323 40.199 C 39.607 39.761 39.787 39.401 39.946 39.155 C 40.204 38.758 40.554 38.305 41.339 37.095 C 41.763 36.443 41.254 35.443 40.475 34.939 C 40.287 34.817 40.222 34.853 40.203 34.884 C 40.004 35.187 41.38 35.922 40.1 37.895 C 39.727 38.468 39.389 38.204 38.772 37.805 L 37.499 36.977 C 36.921 36.602 36.782 36.556 37.02 36.19 L 37.401 35.601 C 37.939 34.774 38.849 35.681 39.014 35.427 C 39.139 35.236 38.749 35.051 38.616 34.975 L 36.807 33.88 C 36.535 33.714 36.497 33.816 36.46 33.869 C 36.357 34.028 37.256 34.648 36.813 35.332 L 36.489 35.834 C 36.264 36.175 36.196 36.13 35.767 35.852 L 34.376 34.949 Z" fill="#50565B" fill-rule="evenodd"/><path d=" M 46.196 30.386 C 46.415 30.574 46.468 30.653 46.696 30.554 C 47.217 30.318 47.771 30.226 48.215 29.853 C 49.167 29.054 49.159 27.686 48.158 26.494 C 47.191 25.342 46.384 25.353 45.247 25.579 C 43.822 25.86 43.325 26.077 42.812 25.469 C 42.3 24.86 42.34 24.24 42.818 23.838 C 44.069 22.788 45.596 24.388 45.764 24.247 C 45.922 24.112 45.854 23.985 45.672 23.798 L 44.568 22.649 C 44.379 22.451 44.287 22.295 44.176 22.388 C 44.082 22.466 44.023 22.765 43.929 22.844 C 43.709 23.027 43.107 22.93 42.513 23.429 C 41.662 24.142 41.719 25.395 42.598 26.438 C 43.397 27.394 44.124 27.388 45.04 27.209 C 46.751 26.871 47.306 26.606 47.954 27.377 C 48.565 28.105 48.495 28.906 47.929 29.383 C 47.121 30.06 45.978 29.612 45.011 28.934 C 44.884 28.84 44.801 28.771 44.685 28.869 C 44.503 29.021 44.796 29.223 44.926 29.333 L 46.196 30.386 Z" fill="#50565B" fill-rule="evenodd"/><path d=" M 47.436 21.408 C 46.79 20.484 47.618 20.427 47.387 20.096 C 47.304 19.98 47.253 19.987 47.02 20.152 C 46.577 20.462 46.324 20.697 46.045 20.891 C 45.772 21.081 45.441 21.255 45.138 21.468 C 45.07 21.517 44.854 21.624 44.97 21.789 C 45.205 22.129 45.894 21.242 46.514 22.126 L 49.781 26.79 C 50.427 27.712 49.69 27.851 49.928 28.192 C 49.963 28.24 50.026 28.296 50.096 28.249 C 50.298 28.106 50.606 27.834 50.938 27.601 C 51.543 27.176 51.86 27.013 52.147 26.812 C 52.326 26.687 52.368 26.599 52.294 26.493 C 52.075 26.182 51.518 27.238 50.682 26.044 L 47.436 21.408 Z" fill="#50565B" fill-rule="evenodd"/><path d=" M 80.43 14.226 C 80.524 13.7 80.715 13.492 81.136 13.566 C 82.583 13.822 82.366 15.543 82.304 15.843 C 82.242 16.146 81.926 17.449 80.794 17.25 C 80.59 17.215 80.441 17.117 80.367 17.104 C 80.254 17.084 80.211 17.221 80.197 17.302 C 80.188 17.35 80.182 17.651 81.098 17.811 C 82.209 18.007 83.236 17.274 83.494 15.812 C 83.796 14.108 82.737 13.319 81.538 13.131 C 80.873 13.026 80.202 12.943 80.071 12.92 C 79.363 12.795 78.856 12.658 78.792 12.648 C 78.567 12.608 78.501 12.753 78.49 12.823 C 78.413 13.257 79.47 12.948 79.252 14.186 L 78.345 19.325 C 78.089 20.785 77.387 20.397 77.327 20.735 C 77.29 20.933 77.464 20.94 77.492 20.944 C 77.546 20.956 78.274 21.035 78.649 21.101 C 78.854 21.137 79.257 21.256 79.912 21.372 C 80.043 21.394 80.131 21.434 80.167 21.236 C 80.239 20.827 79.218 21.104 79.474 19.644 L 80.43 14.226 Z" fill="#50565B" fill-rule="evenodd"/><path d=" M 88.309 14.744 C 86.157 14.027 84.329 15.468 83.481 17.924 C 82.7 20.2 83.387 22.13 85.19 22.753 C 88.053 23.736 89.546 21.178 90.086 19.608 C 90.905 17.231 90.067 15.323 88.309 14.744 Z M 88.833 19.665 C 88.193 21.527 87.172 22.858 85.617 22.359 C 84.002 21.839 84.241 19.3 84.806 17.664 C 85.367 16.037 86.347 14.643 87.874 15.133 C 89.04 15.508 89.688 17.187 88.833 19.665 Z" fill="#50565B" fill-rule="evenodd"/><path d=" M 93.555 18.18 C 93.961 17.378 94.363 18.076 94.567 17.673 C 94.632 17.546 94.596 17.515 94.42 17.424 C 94.283 17.355 94.161 17.345 93.442 16.979 C 93.12 16.816 92.651 16.523 92.312 16.351 C 92.136 16.261 92 16.298 91.952 16.392 C 91.764 16.763 92.864 16.963 92.407 17.862 L 89.859 22.861 C 89.202 24.151 88.849 23.254 88.602 23.739 C 88.571 23.801 88.593 23.882 88.705 23.937 C 89.169 24.174 89.547 24.313 89.809 24.446 C 90.232 24.661 90.718 24.962 92.003 25.617 C 92.694 25.971 93.636 25.357 94.056 24.534 C 94.159 24.334 94.113 24.271 94.081 24.255 C 93.76 24.091 93.172 25.535 91.076 24.468 C 90.468 24.157 90.695 23.794 91.028 23.139 L 93.555 18.18 Z" fill="#50565B" fill-rule="evenodd"/><path d=" M 98.678 21.385 C 99.309 20.45 99.658 21.202 99.887 20.867 C 99.966 20.75 99.941 20.703 99.702 20.545 C 99.256 20.241 98.945 20.091 98.66 19.899 C 98.388 19.712 98.106 19.467 97.8 19.26 C 97.729 19.211 97.553 19.049 97.439 19.217 C 97.209 19.561 98.284 19.885 97.678 20.78 L 94.496 25.5 C 93.865 26.433 93.469 25.796 93.239 26.141 C 93.205 26.189 93.174 26.269 93.244 26.317 C 93.449 26.455 93.816 26.644 94.152 26.872 C 94.765 27.287 95.03 27.523 95.323 27.719 C 95.502 27.842 95.601 27.849 95.673 27.742 C 95.886 27.427 94.7 27.284 95.517 26.074 L 98.678 21.385 Z" fill="#50565B" fill-rule="evenodd"/><path d=" M 98.323 28.02 C 97.454 29.133 96.962 28.024 96.675 28.387 C 96.516 28.592 96.65 28.683 96.782 28.788 C 97.084 29.021 97.359 29.178 97.86 29.568 C 98.36 29.96 98.577 30.19 98.878 30.422 C 99.095 30.593 99.222 30.737 99.396 30.513 C 99.601 30.252 98.432 29.774 99.331 28.625 L 102.633 24.4 C 102.982 23.951 103.096 23.962 103.4 24.202 L 104.038 24.698 C 104.927 25.333 103.876 26.184 104.174 26.419 C 104.37 26.569 104.572 26.141 104.647 26.018 L 105.235 25.094 C 105.3 24.994 105.403 24.864 105.293 24.776 C 104.596 24.233 104.066 23.878 102.976 23.025 C 101.884 22.171 101.413 21.744 100.715 21.201 C 100.604 21.113 100.502 21.245 100.422 21.332 L 99.336 22.472 C 99.228 22.581 99.024 22.752 99.18 22.874 C 99.516 23.139 100.248 21.738 101.094 22.399 L 101.721 22.888 C 102.026 23.128 102.066 23.234 101.716 23.681 L 98.323 28.02 Z" fill="#50565B" fill-rule="evenodd"/><path d=" M 106.492 28.126 C 107.092 27.568 107.126 27.588 107.908 28.427 C 109.159 29.767 107.637 30.171 107.942 30.497 C 108.09 30.657 108.345 30.354 108.451 30.244 L 109.284 29.415 C 109.364 29.343 109.403 29.212 109.318 29.122 C 108.75 28.513 108.269 28.066 107.808 27.572 C 106.819 26.51 106.389 25.978 106.121 25.694 C 106.03 25.597 105.911 25.606 105.832 25.679 C 105.484 26.002 106.494 26.528 105.712 27.255 L 101.652 31.042 C 100.593 32.028 100.571 31.063 100.173 31.436 C 100.121 31.485 100.116 31.567 100.201 31.657 C 100.556 32.039 100.86 32.298 101.062 32.512 C 101.386 32.859 101.739 33.308 102.722 34.364 C 103.254 34.932 104.346 34.679 105.022 34.048 C 105.188 33.895 105.168 33.82 105.142 33.794 C 104.897 33.53 103.851 34.688 102.247 32.965 C 101.781 32.468 102.117 32.203 102.656 31.701 L 103.765 30.666 C 104.268 30.197 104.348 30.072 104.644 30.392 L 105.124 30.906 C 105.795 31.627 104.694 32.29 104.901 32.512 C 105.057 32.678 105.331 32.345 105.436 32.235 L 106.937 30.745 C 107.165 30.52 107.073 30.461 107.031 30.411 C 106.9 30.273 106.085 30.995 105.527 30.4 L 105.118 29.962 C 104.839 29.665 104.901 29.608 105.274 29.26 L 106.492 28.126 Z" fill="#50565B" fill-rule="evenodd"/><path d=" M 113.518 35.485 C 113.565 35.453 113.538 35.391 113.512 35.351 C 113.438 35.24 113.108 35.452 113.005 35.302 C 112.846 35.067 113.039 34.057 112.397 33.105 C 111.061 31.123 108.34 31.777 106.688 32.891 C 105.912 33.416 103.631 35.467 105.187 37.773 C 106.318 39.448 108.366 39.28 108.758 39.016 C 108.817 38.976 108.817 38.87 108.791 38.832 C 108.652 38.627 107.003 38.961 106.182 37.741 C 105.169 36.239 106.69 34.297 108.078 33.361 C 109.394 32.472 111.202 32.181 111.981 33.337 C 112.598 34.25 112.209 35.52 111.529 36.55 C 111.438 36.691 111.271 36.886 111.355 37.011 C 111.444 37.145 111.648 36.961 111.742 36.886 L 113.518 35.485 Z" fill="#50565B" fill-rule="evenodd"/><path d=" M 108.766 40.167 C 107.668 40.679 107.478 39.763 107.049 39.964 C 106.867 40.049 107 40.195 107.043 40.291 C 107.15 40.522 107.301 40.735 107.43 41.01 C 107.573 41.312 107.666 41.622 107.862 42.045 C 107.914 42.157 108.005 42.376 108.153 42.307 C 108.659 42.072 107.416 41.31 109.477 40.349 L 113.133 38.645 C 113.23 38.599 113.313 38.581 113.338 38.633 C 113.358 38.676 113.326 38.752 113.27 38.854 L 109.608 45.596 C 109.551 45.698 109.505 45.768 109.562 45.89 C 109.611 45.994 109.696 45.953 109.932 45.842 L 115.965 43.03 C 117.091 42.504 117.176 43.354 117.497 43.205 C 117.528 43.188 117.637 43.14 117.562 42.976 C 117.525 42.9 117.34 42.618 117.09 42.077 C 116.812 41.484 116.737 41.214 116.675 41.076 C 116.62 40.964 116.501 40.989 116.427 41.023 C 116.072 41.19 116.754 42.149 115.777 42.604 L 112.197 44.273 C 111.929 44.398 111.791 44.442 111.768 44.389 C 111.745 44.338 111.825 44.174 111.924 43.993 L 115.052 38.325 C 115.182 38.075 115.307 38.143 115.179 37.869 C 114.966 37.413 114.819 37.21 114.713 36.986 C 114.639 36.823 114.608 36.647 114.534 36.484 C 114.485 36.38 114.377 36.378 114.28 36.422 C 113.766 36.664 114.915 37.301 112.85 38.262 L 108.766 40.167 Z" fill="#50565B" fill-rule="evenodd"/><path d=" M 117.237 46.425 C 118.308 46.076 118.121 46.885 118.505 46.761 C 118.642 46.716 118.65 46.664 118.562 46.394 C 118.394 45.879 118.244 45.57 118.138 45.246 C 118.036 44.929 117.968 44.561 117.851 44.211 C 117.826 44.128 117.786 43.893 117.595 43.955 C 117.2 44.083 117.845 45.001 116.82 45.334 L 111.406 47.094 C 110.334 47.441 110.417 46.697 110.021 46.824 C 109.964 46.844 109.893 46.886 109.918 46.969 C 109.995 47.202 110.166 47.576 110.29 47.964 C 110.52 48.667 110.584 49.016 110.691 49.351 C 110.759 49.558 110.831 49.624 110.956 49.585 C 111.314 49.467 110.47 48.625 111.854 48.175 L 117.237 46.425 Z" fill="#50565B" fill-rule="evenodd"/><path d=" M 119.77 53.475 C 119.829 53.465 119.829 53.397 119.821 53.351 C 119.799 53.22 119.412 53.277 119.378 53.101 C 119.329 52.82 119.915 51.975 119.716 50.843 C 119.301 48.489 116.549 47.983 114.587 48.328 C 113.665 48.49 110.749 49.438 111.232 52.177 C 111.582 54.167 113.521 54.847 113.988 54.764 C 114.058 54.751 114.101 54.658 114.092 54.611 C 114.05 54.368 112.409 54.003 112.154 52.553 C 111.838 50.77 114.019 49.614 115.666 49.323 C 117.232 49.047 119 49.515 119.242 50.889 C 119.435 51.974 118.562 52.975 117.524 53.64 C 117.382 53.732 117.15 53.84 117.177 53.991 C 117.202 54.149 117.467 54.065 117.581 54.034 L 119.77 53.475 Z" fill="#50565B" fill-rule="evenodd"/><path d=" M 51.876 83.362 C 51.572 83.592 51.555 83.578 51.193 83.097 C 50.613 82.329 51.364 82.249 51.224 82.062 C 51.156 81.971 51.025 82.102 50.968 82.148 L 50.544 82.495 C 50.505 82.523 50.482 82.586 50.519 82.637 C 50.784 82.988 51.008 83.248 51.221 83.531 C 51.679 84.139 51.878 84.44 52 84.602 C 52.042 84.659 52.103 84.662 52.143 84.633 C 52.32 84.499 51.838 84.155 52.237 83.857 L 54.306 82.299 C 54.844 81.893 54.832 82.375 55.037 82.222 C 55.062 82.2 55.067 82.16 55.028 82.109 C 54.863 81.89 54.72 81.736 54.628 81.614 C 54.477 81.415 54.315 81.162 53.859 80.556 C 53.612 80.232 53.075 80.269 52.727 80.528 C 52.645 80.593 52.653 80.631 52.665 80.647 C 52.779 80.798 53.316 80.306 54.059 81.293 C 54.275 81.58 54.105 81.683 53.831 81.891 L 53.266 82.317 C 53.007 82.51 52.967 82.565 52.83 82.382 L 52.608 82.087 C 52.296 81.674 52.847 81.433 52.751 81.305 C 52.68 81.211 52.54 81.353 52.483 81.402 L 51.717 82.021 C 51.602 82.116 51.644 82.152 51.664 82.18 C 51.723 82.26 52.139 81.967 52.397 82.309 L 52.585 82.559 C 52.716 82.729 52.685 82.752 52.494 82.897 L 51.876 83.362 Z" fill="#50565B" fill-rule="evenodd"/><path d=" M 52.827 79.958 C 53.19 79.952 53.344 80.186 53.446 80.108 C 53.508 80.059 53.452 80.011 53.386 79.929 C 53.292 79.801 53.178 79.684 53.079 79.553 C 52.993 79.443 52.928 79.318 52.78 79.124 C 52.722 79.047 52.686 79.033 52.649 79.059 C 52.496 79.178 52.884 79.446 52.649 79.621 C 52.587 79.667 52.439 79.706 52.24 79.718 L 51.514 79.752 C 51.346 79.761 51.249 79.77 51.242 79.758 C 51.23 79.74 51.27 79.65 51.318 79.519 L 51.617 78.729 C 51.666 78.598 51.705 78.513 51.797 78.445 C 51.964 78.317 52.069 78.582 52.2 78.482 C 52.271 78.427 52.217 78.377 52.175 78.32 C 52.083 78.197 51.976 78.073 51.814 77.877 C 51.667 77.689 51.615 77.575 51.546 77.484 C 51.424 77.322 51.381 77.285 51.324 77.328 C 51.227 77.401 51.418 77.575 51.199 78.138 L 50.687 79.475 C 50.63 79.622 50.613 79.705 50.544 79.753 C 50.496 79.79 50.365 79.781 50.229 79.787 L 49.2 79.818 C 48.56 79.84 48.447 79.525 48.345 79.602 C 48.296 79.639 48.291 79.676 48.342 79.744 C 48.487 79.94 48.596 80.046 48.686 80.165 C 48.769 80.276 48.84 80.404 48.979 80.592 C 48.993 80.607 49.03 80.677 49.11 80.617 C 49.218 80.538 48.937 80.276 49.13 80.128 C 49.21 80.068 49.298 80.046 49.573 80.037 L 50.285 80.015 C 50.352 80.012 50.438 79.997 50.461 80.027 C 50.482 80.055 50.455 80.112 50.436 80.157 L 50.038 81.051 C 50.007 81.116 49.965 81.188 49.928 81.215 C 49.768 81.335 49.615 81.093 49.507 81.176 C 49.484 81.193 49.45 81.213 49.516 81.301 C 49.598 81.409 49.686 81.489 49.913 81.792 C 50.141 82.094 50.221 82.236 50.294 82.336 C 50.349 82.406 50.383 82.412 50.425 82.381 C 50.59 82.256 50.235 82.193 50.613 81.277 L 51.013 80.308 C 51.056 80.2 51.118 80.035 51.158 80.003 C 51.189 79.981 51.309 79.983 51.423 79.981 L 52.827 79.958 Z" fill="#50565B" fill-rule="evenodd"/><circle cx="67.838" cy="30.32" r="1.12" fill="#50565B" fill-rule="evenodd"/><circle cx="57.759" cy="32.56" r="1.12" fill="#50565B" fill-rule="evenodd"/><path d=" M 90.967 35.68 C 90.696 36.323 90.408 36.42 89.345 36.233 C 88.458 36.077 88.48 34.912 88.53 34.419 L 87.038 33.985 C 86.396 35.262 85.638 35.333 85.049 35.252 C 83.976 35.105 83.921 33.325 83.985 32.278 L 82.45 31.967 C 81.706 34.071 81.371 34.396 80.434 34.568 C 79.913 34.664 79.515 34.329 79.324 34.121 C 78.998 33.765 78.802 33.279 78.773 32.823 C 78.813 32.595 78.838 32.364 78.847 32.129 L 77.295 31.888 C 77.223 32.151 77.189 32.425 77.187 32.702 C 77.052 33.316 76.764 33.848 76.399 34.118 C 76.147 34.305 75.884 34.352 75.574 34.27 C 74.829 34.073 73.839 33.469 73.839 30.517 L 72.257 30.517 C 72.257 30.608 72.261 30.694 72.262 30.782 L 72.257 30.782 C 72.257 32.905 71.738 33.949 70.524 34.27 C 70.214 34.352 69.928 34.284 69.651 34.063 C 69.268 33.758 68.977 33.209 68.873 32.641 C 68.876 32.409 68.858 32.179 68.817 31.955 L 67.25 32.071 C 67.242 32.291 67.256 32.513 67.286 32.734 C 67.249 33.28 67.015 33.85 66.649 34.214 C 66.35 34.513 66.018 34.632 65.664 34.567 C 64.714 34.393 64.245 33.963 63.513 31.899 L 61.98 32.211 C 62.045 33.304 62.007 35.159 61.013 35.295 C 60.458 35.372 59.795 35.253 59.06 33.786 L 57.567 34.22 C 57.669 35.225 57.278 36.192 56.713 36.332 C 55.708 36.584 55.708 36.584 55.242 35.779 L 55.107 35.549 L 53.745 36.351 L 53.874 36.573 C 54.596 37.82 55.149 38.354 57.095 37.867 C 57.966 37.65 58.553 36.984 58.873 36.159 C 59.554 36.748 60.34 36.985 61.228 36.862 C 62.009 36.755 62.871 36.3 63.301 34.957 C 63.815 35.567 64.462 35.955 65.377 36.123 C 66.247 36.283 67.096 36.004 67.767 35.334 C 67.921 35.18 68.061 35.008 68.186 34.824 C 68.332 35.002 68.493 35.162 68.666 35.3 C 69.333 35.831 70.137 36.009 70.928 35.799 C 71.978 35.521 72.649 34.927 73.077 34.234 C 73.561 35.032 74.258 35.558 75.169 35.799 C 75.947 36.005 76.697 35.863 77.34 35.39 C 77.539 35.242 77.724 35.061 77.89 34.857 C 77.973 34.972 78.063 35.084 78.16 35.19 C 78.861 35.955 79.795 36.294 80.722 36.124 C 81.644 35.955 82.254 35.579 82.72 35.016 C 83.218 36.349 84.169 36.728 84.835 36.82 C 85.532 36.916 86.401 36.846 87.204 36.255 C 87.545 37.079 88.192 37.638 89.073 37.792 C 89.896 37.938 91.61 38.239 92.427 36.295 L 90.967 35.68 Z" fill="#50565B"/><circle cx="78.122" cy="30.385" r="1.12" fill="#50565B" fill-rule="evenodd"/><circle cx="88.334" cy="32.428" r="1.12" fill="#50565B" fill-rule="evenodd"/><path d=" M 57.782 41.219 L 58.97 40.077 L 60.432 40.628 L 59.309 41.762 Z" fill="#50565B" fill-rule="evenodd"/><path d=" M 55.152 40.322 C 61.918 38.161 65.948 37.538 73.12 37.546 C 80.36 37.551 84.401 38.174 91.14 40.322 C 91.14 40.322 91.699 40.469 91.911 39.804 C 92.123 39.139 91.593 38.898 91.593 38.898 C 84.767 36.722 80.451 36.057 73.122 36.051 C 65.857 36.043 61.553 36.709 54.697 38.899 C 54.697 38.899 54.157 39.13 54.369 39.795 C 54.581 40.46 55.152 40.322 55.152 40.322 Z" fill="#50565B"/><path d=" M 56.593 44.691 C 57.207 44.562 57.836 44.419 58.501 44.265 C 61.854 43.495 66.025 42.537 73.047 42.532 C 78.859 42.527 82.801 43.32 87.793 44.324 L 89.64 44.693 C 89.64 44.693 90.207 44.777 90.34 44.103 C 90.474 43.429 89.93 43.228 89.93 43.228 L 88.088 42.859 C 83.014 41.839 79.007 41.033 73.045 41.039 C 65.856 41.045 61.592 42.023 58.166 42.81 C 57.509 42.96 56.887 43.103 56.286 43.229 C 56.286 43.229 55.741 43.438 55.881 44.103 C 56.02 44.768 56.593 44.691 56.593 44.691 Z" fill="#50565B"/><path d=" M 66.906 39.489 L 68.233 38.525 L 69.711 39.303 L 68.353 40.252 Z" fill="#50565B" fill-rule="evenodd"/><path d=" M 91.155 42.255 C 91.448 41.534 91.005 40.565 91.005 40.565 C 90.476 40.401 89.446 40.489 89.192 41.192 C 88.916 41.955 89.192 42.576 90.047 43.087 C 90.046 43.086 90.586 42.897 91.155 42.255 Z" fill="#50565B" fill-rule="evenodd"/><path d=" M 88.377 41.219 L 87.189 40.077 L 85.727 40.628 L 86.85 41.762 Z" fill="#50565B" fill-rule="evenodd"/><path d=" M 79.188 39.489 L 77.86 38.525 L 76.379 39.303 L 77.741 40.252 Z" fill="#50565B" fill-rule="evenodd"/><path d=" M 84.735 40.318 C 84.86 39.528 83.985 38.942 82.799 38.755 C 81.613 38.567 80.564 38.849 80.439 39.639 C 80.314 40.429 81.153 41.004 82.338 41.193 C 83.524 41.379 84.61 41.108 84.735 40.318 Z" fill="#50565B" fill-rule="evenodd"/><path d=" M 99.486 44.246 C 99.711 44.111 99.853 44.118 99.966 44.308 C 100.362 44.966 99.654 45.443 99.52 45.517 C 99.386 45.591 98.798 45.893 98.491 45.38 C 98.434 45.286 98.423 45.196 98.4 45.162 C 98.372 45.111 98.306 45.14 98.269 45.159 C 98.252 45.172 98.138 45.267 98.388 45.683 C 98.69 46.188 99.307 46.353 99.935 45.978 C 100.664 45.537 100.6 44.862 100.262 44.326 C 100.077 44.027 99.881 43.736 99.847 43.677 C 99.651 43.355 99.532 43.11 99.514 43.079 C 99.454 42.978 99.377 43.002 99.35 43.018 C 99.162 43.129 99.633 43.448 99.102 43.766 L 96.899 45.089 C 96.273 45.466 96.179 45.059 96.035 45.148 C 95.949 45.199 96.007 45.268 96.014 45.281 C 96.029 45.307 96.244 45.621 96.347 45.791 C 96.404 45.885 96.494 46.083 96.671 46.379 C 96.707 46.439 96.722 46.487 96.808 46.437 C 96.984 46.332 96.537 46.019 97.163 45.642 L 99.486 44.246 Z" fill="#50565B" fill-rule="evenodd"/><path d=" M 104.177 56.621 C 104.271 56.607 104.399 56.591 104.387 56.517 C 104.376 56.438 104.214 56.452 104.199 56.343 C 104.179 56.212 104.498 55.747 104.401 55.067 C 104.227 53.833 102.88 53.508 101.908 53.645 C 101.45 53.709 100.003 54.137 100.202 55.573 C 100.278 56.106 100.62 56.612 100.986 57.034 C 101.02 57.074 101.052 57.076 101.142 57.063 C 101.225 57.051 101.384 57.014 101.621 56.98 C 102.363 56.876 102.099 57.259 102.346 57.223 C 102.403 57.214 102.423 57.182 102.42 57.158 C 102.394 56.982 102.349 56.814 102.323 56.634 C 102.289 56.404 102.28 56.175 102.249 55.945 C 102.237 55.861 102.261 55.699 102.093 55.721 C 101.873 55.752 102.349 56.28 101.447 56.407 C 101.111 56.454 100.623 56.508 100.501 55.627 C 100.387 54.833 101.394 54.343 102.184 54.232 C 103.649 54.026 104.092 54.622 104.158 55.078 C 104.337 56.364 103.077 56.544 103.091 56.65 C 103.107 56.743 103.137 56.768 103.214 56.758 L 104.177 56.621 Z" fill="#50565B" fill-rule="evenodd"/><path d=" M 103.711 62.137 C 104.111 62.178 104.114 62.199 104.051 62.793 C 103.952 63.743 103.313 63.288 103.29 63.519 C 103.279 63.632 103.472 63.626 103.549 63.629 L 104.126 63.672 C 104.177 63.678 104.24 63.649 104.245 63.584 C 104.291 63.151 104.303 62.811 104.342 62.461 C 104.419 61.707 104.479 61.357 104.501 61.155 C 104.507 61.086 104.467 61.042 104.412 61.036 C 104.183 61.012 104.308 61.588 103.784 61.532 L 101.066 61.247 C 100.358 61.173 100.711 60.831 100.443 60.803 C 100.41 60.8 100.379 60.825 100.369 60.89 C 100.341 61.161 100.345 61.369 100.327 61.523 C 100.302 61.767 100.248 62.06 100.168 62.808 C 100.128 63.211 100.571 63.552 101.026 63.598 C 101.134 63.61 101.157 63.578 101.16 63.559 C 101.18 63.371 100.41 63.359 100.537 62.141 C 100.577 61.787 100.782 61.829 101.142 61.867 L 101.884 61.944 C 102.223 61.981 102.294 61.967 102.271 62.194 L 102.232 62.558 C 102.18 63.07 101.578 62.868 101.56 63.024 C 101.549 63.143 101.759 63.135 101.836 63.137 L 102.874 63.211 C 103.033 63.223 103.026 63.166 103.03 63.132 C 103.038 63.035 102.507 62.964 102.55 62.54 L 102.584 62.23 C 102.606 62.019 102.646 62.023 102.896 62.05 L 103.711 62.137 Z" fill="#50565B" fill-rule="evenodd"/><path d=" M 100.405 63.84 C 100.262 63.837 100.217 63.822 100.16 63.939 C 100.029 64.204 99.845 64.425 99.788 64.721 C 99.663 65.358 100.087 65.901 100.84 66.049 C 101.568 66.191 101.874 65.918 102.244 65.451 C 102.711 64.866 102.836 64.613 103.223 64.689 C 103.607 64.763 103.78 65.025 103.718 65.343 C 103.555 66.179 102.475 66.042 102.455 66.155 C 102.433 66.26 102.501 66.289 102.628 66.303 L 103.404 66.4 C 103.54 66.417 103.623 66.448 103.637 66.375 C 103.649 66.313 103.58 66.173 103.591 66.11 C 103.619 65.963 103.884 65.802 103.961 65.405 C 104.071 64.837 103.665 64.356 103.006 64.228 C 102.402 64.111 102.124 64.353 101.825 64.728 C 101.265 65.43 101.132 65.723 100.645 65.626 C 100.187 65.538 99.968 65.193 100.042 64.813 C 100.144 64.276 100.725 64.077 101.308 64.029 C 101.384 64.023 101.438 64.023 101.453 63.946 C 101.478 63.824 101.302 63.842 101.22 63.842 L 100.405 63.84 Z" fill="#50565B" fill-rule="evenodd"/><path d=" M 99.864 66.339 C 99.722 66.317 99.679 66.299 99.608 66.404 C 99.446 66.654 99.236 66.85 99.142 67.137 C 98.943 67.754 99.295 68.345 100.024 68.584 C 100.728 68.812 101.07 68.578 101.493 68.16 C 102.025 67.637 102.181 67.401 102.555 67.523 C 102.927 67.642 103.07 67.924 102.97 68.234 C 102.705 69.045 101.651 68.777 101.614 68.885 C 101.583 68.989 101.642 69.024 101.767 69.055 L 102.529 69.245 C 102.66 69.276 102.74 69.316 102.762 69.248 C 102.783 69.186 102.731 69.041 102.75 68.978 C 102.796 68.838 103.077 68.71 103.202 68.324 C 103.382 67.775 103.038 67.247 102.397 67.039 C 101.815 66.849 101.507 67.056 101.167 67.394 C 100.524 68.02 100.356 68.292 99.884 68.139 C 99.441 67.996 99.265 67.627 99.384 67.26 C 99.555 66.739 100.155 66.612 100.738 66.635 C 100.815 66.637 100.869 66.646 100.892 66.57 C 100.931 66.453 100.755 66.447 100.673 66.436 L 99.864 66.339 Z" fill="#50565B" fill-rule="evenodd"/><path d=" M 101.686 70.542 C 102.207 70.73 101.883 71.008 102.071 71.076 C 102.136 71.099 102.156 71.082 102.208 70.939 C 102.302 70.675 102.341 70.501 102.403 70.335 C 102.46 70.172 102.549 69.999 102.617 69.816 C 102.632 69.774 102.69 69.666 102.596 69.631 C 102.403 69.56 102.366 70.14 101.866 69.958 L 99.233 69 C 98.71 68.81 98.974 68.528 98.784 68.457 C 98.756 68.448 98.713 68.442 98.699 68.485 C 98.656 68.604 98.604 68.812 98.531 69.013 C 98.4 69.374 98.315 69.539 98.253 69.71 C 98.212 69.817 98.222 69.869 98.281 69.889 C 98.457 69.954 98.394 69.34 99.068 69.588 L 101.686 70.542 Z" fill="#50565B" fill-rule="evenodd"/><path d=" M 100.015 70.485 C 98.901 70.081 97.93 70.436 97.589 71.372 C 97.052 72.853 98.291 73.627 99.06 73.905 C 100.225 74.329 101.184 73.893 101.504 72.984 C 101.897 71.87 101.215 70.922 100.015 70.485 Z M 101.317 72.759 C 101.112 73.362 100.268 73.697 99.054 73.256 C 98.144 72.924 97.501 72.395 97.777 71.59 C 98.065 70.754 99.319 70.876 100.118 71.17 C 100.914 71.459 101.587 71.968 101.317 72.759 Z" fill="#50565B" fill-rule="evenodd"/><path d=" M 57.283 83.298 C 57.131 82.843 57.02 82.514 56.693 81.981 C 56.118 81.044 55.923 80.774 54.954 79.571 C 54.895 79.499 54.836 79.423 54.775 79.344 L 55.732 78.274 L 55.83 78.164 L 56.052 78.02 L 56.012 77.96 L 56.015 77.958 L 56.007 77.953 L 55.522 77.218 C 54.933 76.335 54.468 75.637 53.949 74.508 C 53.145 72.775 52.821 71.766 52.355 70.021 L 52.337 70.026 L 52.344 69.999 L 51.738 70.151 L 50.264 70.52 C 47.884 64.423 47.22 59.004 48.277 54.178 L 51.682 55.636 L 52.079 55.807 L 52.19 55.388 L 53.776 49.355 L 53.921 49.175 L 53.835 49.13 L 53.836 49.127 L 53.821 49.123 L 53.516 48.965 L 52.018 48.188 L 52.657 45.313 L 52.865 45.057 L 52.512 44.831 L 45.922 40.614 L 45.721 40.928 L 45.416 40.712 C 41.83 45.774 39.764 52.087 39.597 58.49 C 39.423 65.165 41.238 71.552 44.844 76.963 L 45.043 77.261 L 45.349 77.075 L 47.43 75.811 C 47.571 76.116 47.844 76.692 48.08 77.093 C 48.184 77.271 48.328 77.478 48.459 77.655 L 46.549 78.898 L 46.752 79.211 L 46.432 79.403 L 46.644 79.759 C 47.945 81.958 50.991 87.11 54.053 86.087 C 54.949 85.787 55.518 85.316 56.067 84.859 C 56.411 84.574 56.766 84.279 57.214 84.011 L 57.473 83.856 C 57.473 83.854 57.375 83.568 57.375 83.568 L 57.283 83.298 Z M 54.319 78.734 C 53.893 78.144 53.45 77.474 53.048 76.816 L 54.893 78.091 L 54.319 78.734 Z M 51.313 71.027 L 50.994 72.292 C 50.838 71.933 50.686 71.575 50.542 71.221 L 51.313 71.027 Z M 51.577 54.78 L 48.451 53.44 C 48.508 53.224 48.564 53.009 48.628 52.795 L 50.599 53.028 L 50.805 53.051 L 50.935 52.89 L 52.628 50.782 L 51.577 54.78 Z M 48.857 52.071 C 49.486 50.203 50.391 48.427 51.575 46.74 L 50.351 52.248 L 48.857 52.071 Z M 52.767 49.418 L 51.354 51.176 L 51.85 48.943 L 52.767 49.418 Z M 45.273 76.249 C 41.883 71.032 40.177 64.909 40.343 58.512 C 40.503 52.377 42.449 46.332 45.825 41.44 L 51.763 45.24 C 45.9 52.695 45.492 61.805 50.517 73.066 L 45.273 76.249 Z M 48.073 75.423 L 51.186 73.533 L 51.469 73.361 L 51.453 73.327 L 51.499 73.339 L 51.977 71.448 C 52.309 72.573 52.652 73.488 53.269 74.82 C 53.644 75.634 53.989 76.228 54.365 76.817 L 52.237 75.345 L 52.223 75.365 L 52.161 75.249 L 51.82 75.471 L 49.087 77.249 C 48.962 77.08 48.82 76.881 48.725 76.716 C 48.485 76.31 48.192 75.683 48.073 75.423 Z M 55.59 84.288 C 55.048 84.738 54.58 85.127 53.817 85.382 C 51.327 86.214 48.392 81.251 47.288 79.383 L 47.258 79.331 L 51.892 76.316 C 52.608 77.596 53.574 79.05 54.373 80.04 C 55.325 81.222 55.499 81.462 56.057 82.371 C 56.339 82.833 56.428 83.098 56.576 83.537 L 56.576 83.538 C 56.2 83.786 55.889 84.04 55.59 84.288 Z M 106.497 58.492 C 106.331 52.089 104.264 45.775 100.679 40.714 L 100.374 40.93 L 100.173 40.616 L 93.582 44.832 L 93.229 45.059 L 93.437 45.315 L 94.076 48.189 L 92.578 48.967 L 92.277 49.123 L 92.256 49.129 L 92.256 49.134 L 92.174 49.177 L 92.314 49.352 L 93.905 55.39 L 94.015 55.808 L 94.412 55.638 L 97.817 54.179 C 98.875 59.007 98.211 64.425 95.83 70.523 L 94.356 70.153 L 93.751 70.001 L 93.758 70.028 L 93.739 70.023 C 93.273 71.769 92.948 72.778 92.146 74.509 C 91.617 75.654 91.169 76.325 90.549 77.255 L 90.042 78.022 L 90.077 78.044 L 90.049 78.06 L 90.361 78.41 L 91.266 79.422 C 91.218 79.483 91.168 79.544 91.118 79.608 C 90.354 80.556 90.18 80.721 89.604 81.269 L 89.148 81.707 C 88.487 82.215 88.104 82.881 88.174 83.413 C 88.217 83.734 88.416 83.982 88.734 84.109 C 89.489 84.411 89.702 84.468 89.888 84.519 C 89.992 84.547 90.075 84.569 90.256 84.638 L 90.294 84.652 C 90.297 84.653 90.337 84.659 90.337 84.659 L 91.102 84.772 C 92.307 84.958 92.519 84.964 94.018 84.515 C 96.846 83.666 98.521 79.987 98.564 79.741 L 98.196 79.678 L 98.391 79.359 L 97.05 78.54 C 97.326 78.148 97.729 77.564 98.009 77.102 C 98.251 76.703 98.524 76.124 98.662 75.818 L 100.742 77.081 L 101.049 77.267 L 101.247 76.969 C 104.856 71.554 106.67 65.167 106.497 58.492 Z M 94.243 48.941 L 94.74 51.176 L 93.327 49.418 L 94.243 48.941 Z M 94.519 46.739 C 95.703 48.427 96.608 50.203 97.237 52.071 L 95.743 52.248 L 94.519 46.739 Z M 94.516 54.78 L 93.463 50.78 L 95.16 52.891 L 95.289 53.052 L 95.494 53.029 L 97.467 52.796 C 97.529 53.01 97.587 53.225 97.643 53.441 L 94.516 54.78 Z M 95.552 71.22 C 95.406 71.575 95.256 71.932 95.1 72.291 L 94.781 71.027 L 95.552 71.22 Z M 91.232 78.258 L 92.623 77.49 C 92.312 78.011 92.032 78.422 91.734 78.819 L 91.232 78.258 Z M 97.727 79.824 C 97.288 80.748 95.844 83.185 93.805 83.798 C 92.41 84.216 92.321 84.201 91.218 84.031 L 90.481 83.922 C 90.293 83.853 90.186 83.823 90.085 83.796 C 89.917 83.75 89.728 83.699 89.014 83.413 C 88.926 83.378 88.921 83.342 88.917 83.312 C 88.888 83.092 89.15 82.635 89.625 82.278 L 89.643 82.265 C 89.645 82.264 89.661 82.248 89.661 82.248 L 90.122 81.807 C 90.709 81.248 90.907 81.06 91.702 80.073 C 92.405 79.199 92.902 78.549 93.593 77.298 L 97.727 79.824 Z M 97.373 76.711 C 97.098 77.164 96.685 77.761 96.413 78.146 L 93.647 76.456 L 93.335 76.265 L 93.327 76.249 L 93.317 76.254 L 93.309 76.249 L 93.303 76.261 L 91.412 77.306 C 91.917 76.543 92.346 75.858 92.824 74.822 C 93.441 73.49 93.783 72.575 94.116 71.45 L 94.594 73.341 L 94.64 73.329 L 94.624 73.363 L 94.907 73.535 L 98.021 75.425 C 97.905 75.682 97.616 76.31 97.373 76.711 Z M 100.821 76.249 L 95.576 73.065 C 100.601 61.804 100.193 52.694 94.33 45.239 L 100.269 41.439 C 103.644 46.332 105.59 52.377 105.75 58.511 C 105.917 64.909 104.21 71.032 100.821 76.249 Z" fill="#50565B"/><path d=" M 75.319 39.262 C 75.333 38.461 74.386 38.002 73.186 37.981 C 71.985 37.96 70.983 38.384 70.969 39.186 C 70.954 39.986 71.865 40.439 73.07 40.46 C 74.269 40.48 75.307 40.062 75.319 39.262 Z" fill="#50565B" fill-rule="evenodd"/><path d=" M 61.293 40.318 C 61.168 39.528 62.041 38.942 63.226 38.755 C 64.414 38.567 65.464 38.849 65.589 39.639 C 65.714 40.429 64.875 41.004 63.687 41.193 C 62.501 41.379 61.418 41.108 61.293 40.318 Z" fill="#50565B" fill-rule="evenodd"/><path d=" M 47.427 70.885 C 48.021 70.595 48.027 71.218 48.223 71.124 C 48.33 71.069 48.288 70.996 48.248 70.916 C 48.162 70.737 48.072 70.598 47.924 70.3 C 47.776 69.998 47.725 69.842 47.64 69.662 C 47.575 69.531 47.546 69.435 47.427 69.495 C 47.287 69.562 47.711 70.063 47.1 70.361 L 44.851 71.459 C 44.612 71.576 44.567 71.542 44.475 71.36 L 44.29 70.978 C 44.018 70.472 44.64 70.347 44.555 70.168 C 44.498 70.051 44.327 70.196 44.271 70.233 L 43.838 70.505 C 43.79 70.533 43.722 70.567 43.753 70.636 C 43.957 71.051 44.123 71.341 44.441 71.995 C 44.76 72.648 44.887 72.959 45.089 73.377 C 45.123 73.441 45.192 73.408 45.246 73.388 L 45.936 73.141 C 46.004 73.119 46.126 73.092 46.081 72.996 C 45.984 72.796 45.396 73.246 45.148 72.74 L 44.966 72.364 C 44.875 72.182 44.881 72.125 45.12 72.009 L 47.427 70.885 Z" fill="#50565B" fill-rule="evenodd"/><path d=" M 43.523 68.227 C 43.157 68.33 43.145 68.312 42.977 67.733 C 42.712 66.811 43.444 67.004 43.377 66.78 C 43.346 66.67 43.179 66.743 43.11 66.768 L 42.589 66.939 C 42.54 66.954 42.498 67.001 42.515 67.064 C 42.635 67.485 42.751 67.809 42.848 68.147 C 43.059 68.881 43.135 69.234 43.192 69.43 C 43.213 69.495 43.266 69.524 43.315 69.509 C 43.528 69.447 43.201 68.954 43.681 68.819 L 46.169 68.105 C 46.819 67.917 46.635 68.364 46.882 68.295 C 46.913 68.283 46.931 68.249 46.913 68.187 C 46.837 67.922 46.757 67.727 46.718 67.579 C 46.647 67.341 46.587 67.048 46.376 66.32 C 46.265 65.927 45.748 65.768 45.333 65.887 C 45.23 65.915 45.225 65.955 45.23 65.975 C 45.284 66.157 45.96 65.89 46.301 67.076 C 46.399 67.42 46.201 67.457 45.872 67.551 L 45.192 67.747 C 44.882 67.835 44.822 67.872 44.759 67.653 L 44.657 67.298 C 44.514 66.8 45.118 66.772 45.075 66.618 C 45.04 66.505 44.858 66.59 44.79 66.612 L 43.852 66.92 C 43.709 66.965 43.735 67.014 43.747 67.048 C 43.772 67.142 44.268 67.017 44.384 67.429 L 44.472 67.731 C 44.533 67.938 44.493 67.947 44.265 68.012 L 43.523 68.227 Z" fill="#50565B" fill-rule="evenodd"/><path d=" M 43.423 65.572 C 44.046 65.472 44.452 65.004 44.364 64.443 C 44.285 63.937 43.787 63.592 43.65 63.613 C 43.59 63.621 43.588 63.653 43.59 63.673 C 43.605 63.752 43.931 63.945 43.977 64.235 C 44.05 64.699 43.501 65.054 42.976 65.136 C 42.638 65.191 42.231 65.167 42.171 64.789 C 42.128 64.524 42.302 64.411 42.555 64.309 C 42.592 64.294 42.635 64.278 42.626 64.235 C 42.612 64.15 42.333 63.906 42.236 63.923 C 41.918 63.974 41.898 64.441 41.924 64.609 C 42.031 65.27 42.69 65.685 43.423 65.572 Z" fill="#50565B" fill-rule="evenodd"/><path d=" M 42.232 59.247 C 41.689 59.247 41.925 58.888 41.714 58.888 C 41.666 58.888 41.649 58.908 41.649 58.992 C 41.649 59.207 41.672 59.39 41.672 59.651 C 41.672 59.96 41.649 60.089 41.649 60.294 C 41.649 60.363 41.638 60.409 41.738 60.409 C 41.9 60.409 41.701 59.86 42.309 59.86 L 43.088 59.86 C 43.21 59.86 43.338 59.889 43.338 60.033 L 43.338 61.514 C 43.338 61.618 43.267 61.638 43.116 61.638 L 42.237 61.638 C 41.742 61.638 41.905 61.253 41.731 61.253 C 41.677 61.253 41.648 61.298 41.648 61.369 C 41.648 61.514 41.671 61.713 41.671 62.012 C 41.671 62.271 41.648 62.419 41.648 62.569 C 41.648 62.663 41.654 62.814 41.737 62.814 C 41.947 62.814 41.706 62.251 42.308 62.251 L 44.776 62.251 C 45.461 62.251 45.262 62.675 45.484 62.675 C 45.558 62.675 45.567 62.624 45.567 62.564 C 45.567 62.317 45.546 62.107 45.546 61.898 C 45.546 61.54 45.567 61.375 45.567 61.171 C 45.567 61.012 45.524 61.02 45.49 61.02 C 45.291 61.02 45.49 61.639 44.804 61.639 L 43.934 61.639 C 43.693 61.639 43.636 61.623 43.636 61.394 L 43.636 60.065 C 43.636 59.846 43.696 59.861 43.929 59.861 L 44.926 59.861 C 45.46 59.861 45.313 60.224 45.506 60.224 C 45.546 60.224 45.567 60.193 45.567 60.124 C 45.567 59.87 45.546 59.675 45.546 59.496 C 45.546 59.291 45.567 58.998 45.567 58.833 C 45.567 58.769 45.572 58.729 45.502 58.729 C 45.285 58.729 45.49 59.248 44.788 59.248 L 42.232 59.248 Z" fill="#50565B" fill-rule="evenodd"/><path d=" M 44.876 57.78 C 45.439 57.837 45.291 58.304 45.513 58.326 C 45.607 58.336 45.587 58.233 45.592 58.18 C 45.607 58.045 45.598 57.909 45.615 57.749 C 45.633 57.575 45.672 57.409 45.695 57.164 C 45.7 57.101 45.72 56.976 45.643 56.969 C 45.381 56.944 45.695 57.616 44.634 57.51 L 42.757 57.322 C 42.706 57.318 42.669 57.303 42.672 57.272 C 42.675 57.248 42.706 57.221 42.751 57.191 L 45.864 55.088 C 45.909 55.057 45.946 55.037 45.952 54.966 C 45.958 54.906 45.915 54.904 45.794 54.891 L 42.697 54.579 C 42.117 54.522 42.29 54.112 42.126 54.096 C 42.108 54.095 42.055 54.089 42.043 54.184 C 42.04 54.228 42.043 54.405 42.012 54.717 C 41.978 55.06 41.941 55.202 41.935 55.281 C 41.927 55.346 41.981 55.366 42.021 55.369 C 42.203 55.39 42.163 54.772 42.667 54.823 L 44.506 55.007 C 44.643 55.02 44.708 55.037 44.705 55.069 C 44.703 55.097 44.632 55.151 44.547 55.208 L 41.913 56.961 C 41.799 57.04 41.766 56.977 41.748 57.137 C 41.723 57.4 41.731 57.532 41.72 57.659 C 41.709 57.755 41.68 57.842 41.668 57.935 C 41.663 57.995 41.706 58.024 41.754 58.029 C 42.019 58.057 41.717 57.463 42.777 57.569 L 44.876 57.78 Z" fill="#50565B" fill-rule="evenodd"/><path d=" M 43.074 52.109 C 42.559 51.998 42.833 51.674 42.647 51.635 C 42.583 51.622 42.565 51.644 42.534 51.79 C 42.477 52.067 42.46 52.248 42.423 52.423 C 42.386 52.593 42.323 52.779 42.284 52.969 C 42.275 53.013 42.232 53.132 42.327 53.151 C 42.515 53.192 42.48 52.609 42.972 52.713 L 45.572 53.266 C 46.086 53.374 45.873 53.696 46.06 53.735 C 46.088 53.741 46.128 53.741 46.137 53.696 C 46.162 53.571 46.185 53.356 46.23 53.147 C 46.313 52.765 46.373 52.589 46.41 52.41 C 46.435 52.299 46.422 52.25 46.362 52.237 C 46.188 52.2 46.322 52.799 45.656 52.658 L 43.074 52.109 Z" fill="#50565B" fill-rule="evenodd"/><path d=" M 44.225 47.524 C 44.2 47.514 44.183 47.545 44.174 47.568 C 44.149 47.633 44.316 47.703 44.281 47.792 C 44.227 47.933 43.775 48.169 43.559 48.731 C 43.11 49.902 44.068 50.821 44.938 51.154 C 45.344 51.31 46.747 51.608 47.269 50.247 C 47.65 49.256 47.059 48.465 46.855 48.385 C 46.824 48.373 46.781 48.405 46.772 48.428 C 46.724 48.548 47.281 49.124 47.005 49.846 C 46.663 50.734 45.497 50.714 44.767 50.434 C 44.077 50.167 43.496 49.514 43.761 48.83 C 43.965 48.291 44.573 48.054 45.159 48.011 C 45.239 48.004 45.358 48.014 45.387 47.939 C 45.418 47.861 45.293 47.834 45.24 47.818 L 44.225 47.524 Z" fill="#50565B" fill-rule="evenodd"/><path d=" M 56.454 96.187 C 56.485 95.806 56.477 95.772 56.386 95.726 C 56.256 95.662 56.103 95.834 55.946 95.968 L 49.969 100.978 C 49.415 101.442 48.938 101.115 48.812 101.359 C 48.742 101.496 48.915 101.558 49.054 101.629 C 49.347 101.778 49.659 101.883 49.961 102.036 C 50.279 102.201 50.561 102.397 50.882 102.559 C 51.093 102.667 51.365 102.9 51.48 102.678 C 51.625 102.394 50.453 102.01 50.842 101.248 C 50.97 100.994 51.3 100.696 51.48 100.519 C 52.065 99.942 52.298 100.004 52.468 100.093 L 54.445 101.099 C 54.707 101.233 54.704 101.364 54.613 102.359 C 54.579 102.7 54.553 102.924 54.433 103.158 C 54.107 103.804 53.453 103.323 53.296 103.631 C 53.219 103.778 53.361 103.824 53.543 103.914 C 53.833 104.065 54.226 104.211 54.669 104.435 C 55.329 104.774 55.579 104.953 55.94 105.137 C 56.212 105.277 56.292 105.345 56.383 105.163 C 56.559 104.815 55.809 104.952 55.867 104.037 L 56.454 96.187 Z M 54.881 99.995 C 54.867 100.145 54.867 100.293 54.793 100.441 C 54.739 100.545 54.605 100.463 54.424 100.373 L 53.059 99.677 C 52.877 99.585 52.732 99.523 52.786 99.418 C 52.86 99.27 52.979 99.185 53.097 99.082 L 54.823 97.606 C 54.931 97.515 54.976 97.524 54.997 97.535 C 55.048 97.56 55.017 97.547 55.034 97.66 L 54.881 99.995 Z" fill="#50565B" fill-rule="evenodd"/><path d=" M 103.984 96.147 C 103.743 95.84 103.549 96.58 102.745 96.136 L 95.878 92.292 C 95.546 92.099 95.512 92.096 95.432 92.158 C 95.319 92.246 95.412 92.46 95.466 92.658 L 97.48 100.193 C 97.664 100.889 97.169 101.188 97.337 101.401 C 97.431 101.523 97.559 101.392 97.684 101.296 C 97.941 101.097 98.167 100.858 98.435 100.648 C 98.719 100.426 99.015 100.256 99.299 100.034 C 99.487 99.889 99.811 99.739 99.657 99.543 C 99.461 99.293 98.619 100.189 98.093 99.518 C 97.917 99.293 97.786 98.87 97.704 98.633 C 97.425 97.857 97.581 97.672 97.732 97.555 L 99.483 96.188 C 99.713 96.009 99.83 96.069 100.692 96.569 C 100.987 96.746 101.18 96.865 101.342 97.07 C 101.788 97.638 101.078 98.031 101.288 98.301 C 101.391 98.431 101.49 98.321 101.652 98.196 C 101.908 97.997 102.209 97.701 102.598 97.397 C 103.184 96.939 103.454 96.788 103.773 96.541 C 104.012 96.352 104.109 96.307 103.984 96.147 Z M 98.812 95.897 L 97.604 96.841 C 97.444 96.966 97.328 97.074 97.254 96.98 C 97.154 96.849 97.126 96.705 97.083 96.557 L 96.472 94.368 C 96.438 94.231 96.467 94.194 96.483 94.18 C 96.53 94.146 96.501 94.168 96.615 94.2 L 98.661 95.323 C 98.796 95.4 98.929 95.463 99.031 95.594 C 99.105 95.687 98.971 95.772 98.812 95.897 Z" fill="#50565B" fill-rule="evenodd"/><path d=" M 65.668 30.042 L 65.433 28.941 C 65.338 28.492 64.899 28.205 64.447 28.301 L 63.494 28.509 L 63.281 27.505 C 63.186 27.056 62.743 26.769 62.294 26.864 L 61.208 27.095 C 60.757 27.19 60.47 27.632 60.565 28.081 L 60.77 29.081 L 59.829 29.281 C 59.38 29.376 59.093 29.818 59.19 30.267 L 59.422 31.368 C 59.519 31.817 59.959 32.104 60.408 32.008 L 65.025 31.028 C 65.475 30.934 65.762 30.492 65.668 30.042 Z M 62.698 31.443 C 62.052 31.581 61.416 31.168 61.276 30.52 C 61.139 29.872 61.552 29.235 62.2 29.099 C 62.848 28.96 63.483 29.374 63.622 30.021 C 63.758 30.668 63.346 31.305 62.698 31.443 Z" fill="#50565B" fill-rule="evenodd"/><path d=" M 75.373 27.134 L 74.409 27.134 L 74.403 26.114 C 74.403 25.655 74.031 25.282 73.573 25.282 L 72.458 25.282 C 71.999 25.282 71.626 25.655 71.626 26.114 L 71.626 27.138 L 70.651 27.134 C 70.19 27.134 69.817 27.506 69.817 27.966 L 69.817 29.09 C 69.817 29.549 70.19 29.922 70.651 29.922 L 75.373 29.922 C 75.834 29.922 76.206 29.549 76.206 29.09 L 76.206 27.966 C 76.206 27.506 75.833 27.134 75.373 27.134 Z M 73.015 29.843 C 72.352 29.843 71.814 29.306 71.814 28.645 C 71.814 27.984 72.352 27.447 73.015 27.447 C 73.678 27.447 74.212 27.984 74.212 28.645 C 74.212 29.306 73.678 29.843 73.015 29.843 Z" fill="#50565B" fill-rule="evenodd"/><path d=" M 86.265 29.284 L 85.324 29.084 L 85.529 28.084 C 85.626 27.635 85.339 27.192 84.889 27.098 L 83.799 26.867 C 83.35 26.771 82.91 27.058 82.813 27.508 L 82.6 28.51 L 81.648 28.302 C 81.199 28.205 80.754 28.492 80.661 28.942 L 80.426 30.043 C 80.332 30.492 80.619 30.935 81.069 31.03 L 85.686 32.01 C 86.135 32.107 86.579 31.82 86.673 31.37 L 86.905 30.269 C 87.001 29.821 86.714 29.378 86.265 29.284 Z M 84.818 30.52 C 84.678 31.167 84.045 31.581 83.396 31.443 C 82.749 31.305 82.335 30.669 82.472 30.021 C 82.612 29.375 83.245 28.96 83.893 29.099 C 84.542 29.235 84.954 29.872 84.818 30.52 Z" fill="#50565B" fill-rule="evenodd"/><path d=" M 94.217 31.347 C 93.822 31.11 93.31 31.238 93.074 31.631 L 92.548 32.51 L 91.712 32.004 C 91.32 31.768 90.808 31.895 90.572 32.288 L 89.992 33.252 C 89.756 33.648 89.884 34.158 90.276 34.395 L 92.088 35.549 C 92.483 35.787 92.992 35.66 93.231 35.265 L 93.811 34.302 C 94.047 33.907 94.226 33.551 94.226 33.551 L 95.17 31.919 L 94.217 31.347 Z M 92.292 35.391 C 91.727 35.049 91.541 34.315 91.883 33.747 C 92.224 33.178 92.96 32.996 93.527 33.337 L 92.292 35.391 Z" fill="#50565B" fill-rule="evenodd"/><path d=" M 56.102 33.252 L 55.522 32.288 C 55.286 31.894 54.776 31.767 54.381 32.004 L 53.548 32.51 L 53.019 31.631 C 52.784 31.237 52.272 31.11 51.876 31.347 L 50.924 31.919 L 51.87 33.551 C 51.87 33.551 52.047 33.907 52.285 34.302 L 52.865 35.265 C 53.101 35.661 53.61 35.787 54.006 35.549 L 55.817 34.395 C 56.212 34.159 56.34 33.648 56.102 33.252 Z M 53.801 35.391 L 52.567 33.337 C 53.133 32.996 53.87 33.178 54.211 33.747 C 54.552 34.315 54.367 35.049 53.801 35.391 Z" fill="#50565B" fill-rule="evenodd"/><path d=" M 45.832 30.739 C 45.761 30.678 45.67 30.674 45.613 30.739 C 45.55 30.81 45.542 30.928 45.479 31 C 45.431 31.057 45.311 31.193 45.112 31.133 C 43.538 30.668 41.71 30.149 41.655 30.102 C 41.567 30.024 41.667 29.747 41.641 29.36 C 41.606 28.965 41.456 28.47 40.885 27.973 C 40.472 27.615 39.084 26.659 37.723 28.229 C 37.305 28.708 36.918 29.227 36.5 29.706 C 36.107 30.157 36.021 30.184 35.734 30.512 C 35.661 30.599 35.644 30.71 35.732 30.788 C 36.056 31.066 36.403 29.999 37.404 30.87 L 41.344 34.294 C 42.47 35.274 41.671 35.599 41.958 35.848 C 42.137 36.002 42.239 35.829 42.308 35.749 C 42.62 35.393 42.896 35.003 43.232 34.616 C 43.494 34.316 43.699 34.154 43.803 34.032 C 43.946 33.867 43.943 33.761 43.864 33.694 C 43.54 33.412 43.289 34.441 42.334 33.608 L 40.784 32.261 C 40.472 31.99 40.372 31.977 40.702 31.598 C 41.012 31.24 41.205 31.181 41.742 31.359 L 43.679 31.988 C 44.393 32.217 45.155 32.476 45.647 31.911 C 45.894 31.625 46.11 30.981 45.832 30.739 Z M 40.416 31.097 C 40.228 31.312 39.998 31.576 39.773 31.382 L 37.964 29.809 C 37.427 29.343 37.62 29.121 37.85 28.857 C 38.479 28.133 39.492 28.308 40.367 29.07 C 40.896 29.53 41.36 30.008 40.416 31.097 Z" fill="#50565B" fill-rule="evenodd"/><path d=" M 64.753 21.27 C 64.631 20.897 64.286 21.496 63.738 20.788 L 59.058 14.677 C 58.829 14.377 58.807 14.361 58.725 14.386 C 58.608 14.425 58.63 14.653 58.628 14.855 L 58.398 22.475 C 58.378 23.18 57.897 23.261 57.98 23.521 C 58.028 23.666 58.165 23.598 58.292 23.557 C 58.554 23.471 58.802 23.342 59.071 23.254 C 59.358 23.159 59.645 23.117 59.932 23.024 C 60.122 22.962 60.426 22.95 60.353 22.712 C 60.253 22.407 59.335 22.903 59.074 22.094 C 58.986 21.823 58.983 21.386 58.971 21.14 C 58.937 20.328 59.113 20.221 59.267 20.171 L 61.043 19.595 C 61.279 19.518 61.359 19.616 61.945 20.399 C 62.14 20.672 62.271 20.854 62.351 21.102 C 62.576 21.79 61.893 21.874 62.001 22.202 C 62.052 22.358 62.16 22.299 62.325 22.246 C 62.586 22.161 62.905 22.008 63.303 21.878 C 63.898 21.685 64.156 21.65 64.481 21.546 C 64.728 21.464 64.816 21.461 64.753 21.27 Z M 60.568 19.075 L 59.342 19.474 C 59.178 19.525 59.055 19.579 59.018 19.465 C 58.967 19.308 58.982 19.167 58.985 19.016 L 59.03 16.793 C 59.033 16.654 59.067 16.632 59.085 16.625 C 59.13 16.61 59.105 16.619 59.187 16.693 L 60.589 18.493 C 60.68 18.615 60.774 18.721 60.825 18.88 C 60.861 18.993 60.73 19.022 60.568 19.075 Z" fill="#50565B" fill-rule="evenodd"/><path d=" M 120.617 57.535 C 120.606 57.412 120.376 57.388 120.179 57.341 L 112.752 55.487 C 112.064 55.316 112.087 54.826 111.814 54.852 C 111.661 54.87 111.698 55.017 111.711 55.151 C 111.74 55.425 111.814 55.697 111.842 55.981 C 111.873 56.284 111.854 56.573 111.885 56.877 C 111.905 57.076 111.851 57.378 112.098 57.354 C 112.419 57.322 112.127 56.318 112.98 56.233 C 113.264 56.204 113.694 56.295 113.938 56.337 C 114.743 56.477 114.808 56.67 114.825 56.832 L 115.013 58.7 C 115.036 58.947 114.923 59.006 114.03 59.411 C 113.72 59.547 113.515 59.636 113.254 59.661 C 112.532 59.734 112.595 59.047 112.25 59.082 C 112.083 59.098 112.12 59.22 112.137 59.391 C 112.165 59.665 112.248 60.011 112.287 60.429 C 112.349 61.055 112.33 61.316 112.364 61.657 C 112.389 61.914 112.373 62.002 112.575 61.982 C 112.967 61.942 112.453 61.475 113.265 61.088 L 120.263 57.802 C 120.606 57.641 120.628 57.621 120.617 57.535 Z M 118.257 57.494 L 116.187 58.486 C 116.05 58.548 115.926 58.617 115.76 58.634 C 115.641 58.645 115.641 58.512 115.623 58.341 L 115.493 57.051 C 115.475 56.881 115.45 56.748 115.569 56.738 C 115.734 56.72 115.871 56.766 116.018 56.798 L 118.188 57.319 C 118.324 57.354 118.341 57.389 118.341 57.41 C 118.348 57.457 118.344 57.428 118.257 57.494 Z" fill="#50565B" fill-rule="evenodd"/><path d=" M 103.475 50.94 C 103.1 49.82 101.979 49.493 100.762 49.888 C 99.633 50.255 99.09 51.133 99.398 52.077 C 99.887 53.578 101.34 53.422 102.12 53.171 C 103.295 52.789 103.785 51.854 103.475 50.94 Z M 101.712 52.664 C 100.79 52.962 99.961 52.941 99.682 52.138 C 99.392 51.302 100.455 50.628 101.266 50.364 C 102.073 50.102 102.914 50.089 103.191 50.879 C 103.398 51.481 102.941 52.263 101.712 52.664 Z" fill="#50565B" fill-rule="evenodd"/><path d=" M 101.854 47.196 C 101.715 46.894 101.55 46.6 101.411 46.3 C 101.278 46.017 101.283 45.972 101.186 45.765 C 101.164 45.711 101.116 45.679 101.061 45.703 C 100.871 45.793 101.294 46.189 100.703 46.467 L 98.372 47.553 C 97.706 47.865 97.712 47.42 97.542 47.498 C 97.437 47.549 97.496 47.634 97.519 47.684 C 97.624 47.908 97.749 48.122 97.864 48.366 C 97.952 48.554 97.986 48.684 98.02 48.761 C 98.068 48.864 98.117 48.885 98.165 48.863 C 98.355 48.773 97.932 48.431 98.498 48.168 L 99.414 47.741 C 99.602 47.654 99.624 47.61 99.734 47.847 C 99.839 48.071 99.828 48.174 99.643 48.386 L 98.984 49.153 C 98.742 49.434 98.475 49.734 98.64 50.087 C 98.722 50.266 98.978 50.508 99.14 50.431 C 99.183 50.411 99.202 50.371 99.185 50.33 C 99.163 50.286 99.112 50.255 99.089 50.211 C 99.071 50.175 99.031 50.09 99.1 50.01 C 99.615 49.376 100.206 48.637 100.238 48.623 C 100.292 48.597 100.4 48.705 100.582 48.779 C 100.77 48.849 101.025 48.886 101.364 48.73 C 101.607 48.615 102.312 48.176 101.854 47.196 Z M 100.959 48.245 C 100.646 48.391 100.336 48.503 100.018 47.821 C 99.956 47.688 99.878 47.521 100.012 47.461 L 101.08 46.96 C 101.396 46.813 101.462 46.952 101.539 47.118 C 101.751 47.57 101.477 48.003 100.959 48.245 Z" fill="#50565B" fill-rule="evenodd"/><path d=" M 104.667 57.764 C 104.456 57.743 104.618 58.304 103.964 58.239 L 101.395 57.981 C 100.658 57.908 100.892 57.527 100.704 57.508 C 100.588 57.496 100.596 57.602 100.591 57.655 C 100.565 57.903 100.565 58.153 100.537 58.419 C 100.516 58.628 100.48 58.759 100.471 58.841 C 100.46 58.955 100.492 58.999 100.545 59.003 C 100.756 59.025 100.565 58.512 101.188 58.574 L 102.201 58.676 C 102.405 58.697 102.448 58.671 102.423 58.932 C 102.397 59.18 102.337 59.264 102.068 59.351 L 101.104 59.674 C 100.751 59.794 100.365 59.916 100.328 60.306 C 100.307 60.503 100.404 60.843 100.584 60.861 C 100.633 60.866 100.67 60.84 100.672 60.795 C 100.678 60.745 100.65 60.693 100.652 60.644 C 100.658 60.605 100.667 60.51 100.763 60.474 C 101.535 60.193 102.423 59.858 102.46 59.861 C 102.517 59.866 102.557 60.015 102.676 60.173 C 102.801 60.329 103.003 60.494 103.378 60.531 C 103.646 60.559 104.478 60.543 104.586 59.459 C 104.62 59.128 104.632 58.789 104.663 58.458 C 104.694 58.146 104.723 58.11 104.745 57.883 C 104.749 57.822 104.723 57.77 104.667 57.764 Z M 104.354 59.231 C 104.305 59.73 103.844 59.964 103.273 59.907 C 102.926 59.873 102.602 59.81 102.679 59.058 C 102.693 58.91 102.71 58.728 102.858 58.742 L 104.038 58.86 C 104.387 58.896 104.374 59.049 104.354 59.231 Z" fill="#50565B" fill-rule="evenodd"/><path d=" M 49.877 45.003 C 49.718 44.915 49.775 45.255 49.354 45.203 L 45.741 44.737 C 45.565 44.713 45.551 44.716 45.528 44.756 C 45.497 44.813 45.576 44.887 45.635 44.959 L 47.91 47.764 C 48.12 48.023 47.97 48.229 48.08 48.29 C 48.142 48.324 48.172 48.25 48.205 48.188 C 48.276 48.062 48.328 47.925 48.398 47.794 C 48.475 47.655 48.569 47.535 48.646 47.395 C 48.697 47.304 48.804 47.187 48.703 47.132 C 48.572 47.058 48.391 47.572 48.041 47.379 C 47.924 47.314 47.787 47.16 47.708 47.075 C 47.446 46.798 47.478 46.697 47.518 46.621 L 47.993 45.764 C 48.055 45.651 48.118 45.657 48.573 45.722 C 48.732 45.744 48.835 45.763 48.942 45.823 C 49.238 45.987 49.013 46.265 49.153 46.344 C 49.221 46.381 49.244 46.319 49.286 46.24 C 49.357 46.114 49.426 45.942 49.534 45.75 C 49.693 45.463 49.776 45.356 49.864 45.198 C 49.928 45.083 49.96 45.049 49.877 45.003 Z M 47.657 45.754 L 47.327 46.348 C 47.285 46.425 47.257 46.491 47.208 46.462 C 47.14 46.425 47.103 46.369 47.055 46.316 L 46.384 45.505 C 46.344 45.452 46.35 45.433 46.353 45.424 C 46.368 45.403 46.359 45.415 46.413 45.411 L 47.488 45.54 C 47.556 45.549 47.625 45.554 47.692 45.592 C 47.74 45.618 47.7 45.677 47.657 45.754 Z" fill="#50565B" fill-rule="evenodd"/><path d=" M 89.556 44.668 L 89.187 44.663 L 55.383 44.663 L 55.383 63.328 C 55.383 71.566 55.885 78.38 62.2 84.807 C 65.92 88.591 68.449 90.324 72.64 93.193 L 72.897 93.369 L 73.358 93.684 L 73.789 93.329 C 75.081 92.259 76.211 91.445 77.304 90.658 C 79.551 89.04 81.492 87.641 83.961 84.695 C 89.979 77.514 91.037 72.084 91.037 63.328 L 91.037 44.668 L 89.556 44.668 Z M 82.826 83.745 C 80.475 86.549 78.604 87.896 76.438 89.458 C 75.326 90.259 74.608 90.733 73.278 91.834 C 69.281 89.099 66.816 87.39 63.257 83.77 C 57.323 77.731 56.864 71.489 56.864 63.33 L 56.864 46.145 L 89.555 46.147 L 89.555 63.329 C 89.556 71.892 88.584 76.873 82.826 83.745 Z" fill="#50565B"/><path d=" M 109.098 26.405 L 108.502 25.333 L 107.955 27.037 L 108.316 27.687 Z" fill="#50565B" fill-rule="evenodd"/><path d=" M 66.621 19.552 C 66.915 20.939 65.743 20.603 65.839 21.056 C 65.895 21.313 66.05 21.269 66.219 21.233 C 66.591 21.153 66.888 21.042 67.512 20.909 C 68.136 20.777 68.454 20.757 68.828 20.679 C 69.098 20.621 69.291 20.617 69.231 20.336 C 69.162 20.012 68.042 20.604 67.737 19.17 L 66.618 13.906 C 66.499 13.346 66.579 13.267 66.962 13.187 L 67.753 13.018 C 68.815 12.745 68.792 14.101 69.165 14.022 C 69.407 13.97 69.207 13.538 69.159 13.401 L 68.829 12.353 C 68.796 12.239 68.76 12.075 68.622 12.105 C 67.755 12.289 67.142 12.468 65.78 12.756 C 64.419 13.045 63.786 13.132 62.919 13.316 C 62.779 13.346 62.815 13.509 62.829 13.628 L 63.007 15.195 C 63.021 15.351 63.019 15.62 63.215 15.578 C 63.635 15.488 63.031 14.023 64.083 13.8 L 64.865 13.632 C 65.248 13.552 65.354 13.591 65.472 14.149 L 66.621 19.552 Z" fill="#50565B" fill-rule="evenodd"/><path d=" M 54.137 23.942 C 54.791 25.199 53.573 25.19 53.787 25.601 C 53.908 25.834 54.046 25.748 54.199 25.669 C 54.536 25.492 54.794 25.304 55.357 25.01 C 55.925 24.714 56.225 24.612 56.562 24.435 C 56.807 24.306 56.994 24.251 56.86 23.997 C 56.707 23.702 55.785 24.571 55.109 23.273 L 52.619 18.502 C 52.353 17.996 52.41 17.898 52.758 17.72 L 53.476 17.343 C 54.424 16.796 54.766 18.108 55.104 17.931 C 55.323 17.818 55.014 17.454 54.932 17.337 L 54.332 16.414 C 54.269 16.312 54.189 16.165 54.064 16.23 C 53.279 16.639 52.734 16.977 51.502 17.622 C 50.27 18.265 49.682 18.517 48.897 18.927 C 48.771 18.993 48.849 19.142 48.895 19.25 L 49.487 20.715 C 49.541 20.861 49.613 21.12 49.79 21.027 C 50.169 20.829 49.195 19.579 50.149 19.081 L 50.858 18.712 C 51.204 18.53 51.316 18.54 51.581 19.045 L 54.137 23.942 Z" fill="#50565B" fill-rule="evenodd"/><path d=" M 68.313 97.815 L 67.098 97.899 L 68.405 99.107 L 69.139 99.055 Z" fill="#50565B" fill-rule="evenodd"/></g><g><path d=" M 158.68 17.207 C 159.086 17.301 159.522 17.362 159.958 17.362 C 160.27 17.362 160.613 17.3 160.894 17.207 C 160.645 20.105 160.395 25.594 160.332 30.145 C 160.27 35.663 157.059 39.124 151.447 39.124 C 145.274 39.124 142.53 36.256 142.53 30.207 C 142.53 28.274 142.686 26.841 142.686 25.282 C 142.686 21.852 142.561 19.014 142.499 17.207 C 142.997 17.301 143.62 17.362 144.119 17.362 C 144.556 17.362 145.056 17.3 145.46 17.207 C 145.273 19.047 145.086 23.286 145.086 27.9 C 145.086 32.14 145.086 37.658 152.038 37.658 C 158.866 37.658 158.866 31.267 158.866 27.34 C 158.868 21.416 158.868 18.422 158.68 17.207 Z" fill="#50565B"/><path d=" M 186.433 39.124 C 181.695 33.544 176.02 27.557 170.689 21.883 C 170.658 23.037 170.595 24.907 170.595 28.213 C 170.595 30.894 170.72 37.472 170.876 38.719 C 170.533 38.625 170.158 38.563 169.785 38.563 C 169.41 38.563 169.036 38.625 168.631 38.719 C 168.881 37.254 169.285 29.272 169.285 25.157 C 169.285 21.228 169.285 18.204 169.191 16.802 L 169.691 16.802 C 174.773 22.321 181.663 29.833 185.466 33.668 C 185.466 28.088 185.466 22.009 185.216 17.207 C 185.56 17.301 185.933 17.362 186.277 17.362 C 186.619 17.362 186.931 17.3 187.274 17.207 C 187.087 19.047 186.775 25.219 186.775 27.651 C 186.775 30.831 186.837 37.721 186.869 39.124 L 186.433 39.124 Z" fill="#50565B"/><path d=" M 195.512 25.282 C 195.512 22.6 195.387 19.888 195.262 17.207 C 195.792 17.301 196.291 17.362 196.789 17.362 C 197.289 17.362 197.787 17.3 198.318 17.207 C 198.192 19.889 198.068 22.601 198.068 25.282 L 198.068 30.643 C 198.068 33.325 198.192 36.038 198.318 38.718 C 197.787 38.624 197.289 38.562 196.789 38.562 C 196.291 38.562 195.792 38.624 195.262 38.718 C 195.387 36.037 195.512 33.324 195.512 30.643 L 195.512 25.282 Z" fill="#50565B"/><path d=" M 203.597 17.207 C 204.127 17.301 204.688 17.362 205.219 17.362 C 205.748 17.362 206.31 17.3 206.84 17.207 C 208.678 22.725 211.328 29.335 213.947 35.632 C 216.222 30.582 219.715 21.291 221.024 17.207 C 221.398 17.301 221.803 17.362 222.177 17.362 C 222.551 17.362 222.956 17.3 223.33 17.207 C 220.089 24.378 217.095 31.548 214.352 38.719 C 214.008 38.625 213.664 38.563 213.323 38.563 C 212.979 38.563 212.574 38.625 212.294 38.719 C 210.425 33.574 206.622 24.377 203.597 17.207 Z" fill="#50565B"/><path d=" M 228.78 25.25 C 228.78 22.568 228.656 19.856 228.531 17.206 C 230.401 17.3 232.241 17.361 234.112 17.361 C 235.982 17.361 237.821 17.299 239.662 17.206 C 239.599 17.518 239.568 17.83 239.568 18.142 C 239.568 18.454 239.598 18.765 239.661 19.077 C 237.042 18.89 235.515 18.672 231.462 18.672 C 231.431 20.013 231.337 21.104 231.337 22.632 C 231.337 24.253 231.368 25.968 231.368 26.747 C 235.048 26.747 237.104 26.591 238.944 26.435 C 238.882 26.747 238.85 27.089 238.85 27.401 C 238.85 27.713 238.881 28.025 238.944 28.337 C 236.792 28.119 232.865 28.057 231.368 28.057 C 231.337 28.805 231.337 29.584 231.337 32.578 C 231.337 34.947 231.368 36.475 231.399 37.255 C 234.174 37.255 237.853 37.223 239.817 36.85 C 239.755 37.13 239.723 37.536 239.723 37.816 C 239.723 38.096 239.754 38.44 239.817 38.72 C 237.977 38.626 236.106 38.564 234.204 38.564 C 232.304 38.564 230.433 38.626 228.531 38.72 C 228.656 36.008 228.78 33.295 228.78 30.615 L 228.78 25.25 Z" fill="#50565B"/><path d=" M 246.302 25.282 C 246.302 22.6 246.177 19.888 246.053 17.207 C 247.238 17.301 248.421 17.362 249.607 17.362 C 250.792 17.362 251.978 17.207 253.165 17.207 C 256.687 17.207 259.649 18.423 259.649 22.132 C 259.649 26.154 255.628 27.776 253.257 28.088 C 254.785 29.989 259.991 36.692 261.8 38.719 C 261.177 38.625 260.553 38.563 259.93 38.563 C 259.336 38.563 258.713 38.625 258.121 38.719 C 256.874 36.818 252.726 31.08 250.043 28.368 L 248.858 28.368 L 248.858 30.643 C 248.858 33.325 248.982 36.038 249.107 38.718 C 248.577 38.624 248.079 38.562 247.579 38.562 C 247.082 38.562 246.582 38.624 246.053 38.718 C 246.177 36.037 246.302 33.324 246.302 30.643 L 246.302 25.282 Z M 248.859 27.058 C 249.421 27.183 250.136 27.214 250.948 27.214 C 253.508 27.214 256.906 26.153 256.906 22.443 C 256.906 19.17 254.193 18.359 252.073 18.359 C 250.635 18.359 249.701 18.453 249.046 18.515 C 248.953 20.79 248.859 23.036 248.859 25.281 L 248.859 27.058 Z" fill="#50565B"/><path d=" M 266.826 34.572 C 267.514 36.038 269.072 37.814 271.753 37.814 C 274.528 37.814 276.211 35.788 276.211 33.293 C 276.211 27.556 266.391 30.02 266.391 22.693 C 266.391 19.232 269.009 16.8 273.156 16.8 C 275.121 16.8 276.523 17.267 277.77 18.265 C 277.396 18.983 277.178 19.7 276.929 20.884 L 276.555 20.884 C 276.117 19.731 275.183 17.953 272.844 17.953 C 270.505 17.953 268.823 19.543 268.823 21.818 C 268.823 27.649 278.643 25.216 278.643 32.107 C 278.643 35.911 275.806 39.122 271.005 39.122 C 268.417 39.122 266.952 38.218 265.86 37.345 C 266.234 36.379 266.328 35.755 266.452 34.571 L 266.826 34.571 Z" fill="#50565B"/><path d=" M 285.624 25.282 C 285.624 22.6 285.5 19.888 285.374 17.207 C 285.904 17.301 286.403 17.362 286.903 17.362 C 287.401 17.362 287.9 17.3 288.429 17.207 C 288.305 19.889 288.18 22.601 288.18 25.282 L 288.18 30.643 C 288.18 33.325 288.305 36.038 288.429 38.718 C 287.9 38.624 287.401 38.562 286.903 38.562 C 286.403 38.562 285.904 38.624 285.374 38.718 C 285.5 36.037 285.624 33.324 285.624 30.643 L 285.624 25.282 Z" fill="#50565B"/><path d=" M 142.538 57.082 C 142.538 54.4 142.414 51.687 142.289 49.007 C 143.286 49.1 144.315 49.163 145.313 49.163 C 146.31 49.163 148.305 49.007 149.178 49.007 C 151.049 49.007 156.006 49.069 156.006 54.276 C 156.006 59.763 150.612 60.824 147.619 60.824 C 146.683 60.824 145.904 60.793 145.094 60.73 L 145.094 62.444 C 145.094 65.126 145.219 67.839 145.343 70.519 C 144.814 70.425 144.315 70.364 143.816 70.364 C 143.317 70.364 142.819 70.426 142.289 70.519 C 142.414 67.838 142.538 65.125 142.538 62.444 L 142.538 57.082 Z M 145.094 59.419 C 145.748 59.575 146.621 59.668 147.307 59.668 C 149.864 59.668 153.137 58.702 153.137 54.462 C 153.137 50.908 151.112 50.159 147.9 50.159 L 145.094 50.159 L 145.094 59.419 Z" fill="#50565B"/><path d=" M 171.146 48.601 C 178.036 48.601 182.836 52.685 182.836 59.762 C 182.836 66.839 178.035 70.924 171.146 70.924 C 164.287 70.924 159.486 66.839 159.486 59.762 C 159.486 52.685 164.287 48.601 171.146 48.601 Z M 171.146 49.755 C 166.282 49.755 162.541 52.841 162.541 59.762 C 162.541 66.683 166.282 69.77 171.146 69.77 C 176.041 69.77 179.782 66.683 179.782 59.762 C 179.782 52.841 176.041 49.755 171.146 49.755 Z" fill="#50565B"/><path d=" M 188.01 57.082 C 188.01 54.4 187.885 51.687 187.76 49.007 C 188.29 49.1 188.789 49.163 189.287 49.163 C 189.787 49.163 190.285 49.1 190.815 49.007 C 190.69 51.688 190.566 54.401 190.566 57.082 C 190.566 62.319 190.628 65.998 190.66 69.054 C 193.59 69.054 196.146 69.054 199.264 68.649 C 199.17 68.961 199.108 69.272 199.108 69.584 C 199.108 69.896 199.17 70.208 199.264 70.52 C 197.364 70.426 195.429 70.365 193.528 70.365 C 191.595 70.365 189.694 70.427 187.76 70.52 C 187.885 67.839 188.01 65.126 188.01 62.445 L 188.01 57.082 Z" fill="#50565B"/><path d=" M 204.968 57.082 C 204.968 54.4 204.844 51.687 204.718 49.007 C 205.248 49.1 205.747 49.163 206.246 49.163 C 206.744 49.163 207.244 49.1 207.773 49.007 C 207.649 51.688 207.523 54.401 207.523 57.082 L 207.523 62.443 C 207.523 65.125 207.649 67.838 207.773 70.518 C 207.244 70.424 206.744 70.363 206.246 70.363 C 205.747 70.363 205.248 70.425 204.718 70.518 C 204.844 67.837 204.968 65.124 204.968 62.443 L 204.968 57.082 Z" fill="#50565B"/><path d=" M 219.557 57.082 C 219.557 54.931 219.526 52.779 219.463 50.628 C 217.313 50.628 214.537 50.753 212.792 50.971 C 212.887 50.659 212.948 50.317 212.948 49.974 C 212.948 49.662 212.886 49.35 212.792 49.007 C 215.473 49.1 218.154 49.163 220.836 49.163 C 223.517 49.163 226.198 49.1 228.879 49.007 C 228.786 49.35 228.723 49.661 228.723 50.005 C 228.723 50.317 228.786 50.659 228.879 50.971 C 227.133 50.753 224.358 50.628 222.207 50.628 C 222.145 52.779 222.113 54.931 222.113 57.082 L 222.113 62.443 C 222.113 65.125 222.239 67.838 222.363 70.518 C 221.834 70.424 221.334 70.363 220.836 70.363 C 220.337 70.363 219.838 70.425 219.308 70.518 C 219.434 67.837 219.557 65.124 219.557 62.443 L 219.557 57.082 Z" fill="#50565B"/><path d=" M 266.929 69.146 C 266.15 69.77 263.563 70.924 260.445 70.924 C 253.868 70.924 249.065 66.839 249.065 59.762 C 249.065 52.685 253.868 48.601 260.756 48.601 C 263.438 48.601 265.838 49.255 267.523 50.035 C 267.211 50.597 266.993 51.812 266.868 52.468 L 266.681 52.53 C 265.808 51.564 263.688 49.757 260.756 49.757 C 255.861 49.757 252.12 52.843 252.12 59.764 C 252.12 66.685 255.861 69.772 260.756 69.772 C 263.718 69.772 265.901 68.088 267.086 67.184 L 267.211 67.309 L 266.929 69.146 Z" fill="#50565B"/><path d=" M 290.468 70.924 C 285.73 65.343 280.055 59.357 274.725 53.683 C 274.693 54.836 274.631 56.706 274.631 60.012 C 274.631 62.693 274.754 69.271 274.91 70.518 C 274.568 70.424 274.194 70.363 273.819 70.363 C 273.445 70.363 273.072 70.425 272.666 70.518 C 272.916 69.053 273.321 61.072 273.321 56.956 C 273.321 53.028 273.321 50.004 273.227 48.601 L 273.726 48.601 C 278.807 54.12 285.698 61.633 289.5 65.468 C 289.5 59.887 289.5 53.808 289.252 49.006 C 289.594 49.099 289.968 49.162 290.312 49.162 C 290.656 49.162 290.967 49.099 291.309 49.006 C 291.122 50.846 290.811 57.018 290.811 59.45 C 290.811 62.63 290.873 69.52 290.904 70.924 L 290.468 70.924 Z" fill="#50565B"/><path d=" M 298.083 57.082 C 298.083 54.4 297.959 51.687 297.833 49.007 C 298.363 49.1 298.861 49.163 299.361 49.163 C 299.859 49.163 300.359 49.1 300.888 49.007 C 300.764 51.688 300.638 54.401 300.638 57.082 L 300.638 62.443 C 300.638 65.125 300.764 67.838 300.888 70.518 C 300.359 70.424 299.859 70.363 299.361 70.363 C 298.861 70.363 298.363 70.425 297.833 70.518 C 297.959 67.837 298.083 65.124 298.083 62.443 L 298.083 57.082 Z" fill="#50565B"/><path d=" M 324.346 69.146 C 323.567 69.77 320.979 70.924 317.862 70.924 C 311.283 70.924 306.481 66.839 306.481 59.762 C 306.481 52.685 311.283 48.601 318.172 48.601 C 320.854 48.601 323.255 49.255 324.938 50.035 C 324.626 50.597 324.409 51.812 324.284 52.468 L 324.096 52.53 C 323.223 51.564 321.103 49.757 318.172 49.757 C 313.277 49.757 309.537 52.843 309.537 59.764 C 309.537 66.685 313.277 69.772 318.172 69.772 C 321.135 69.772 323.317 68.088 324.502 67.184 L 324.626 67.309 L 324.346 69.146 Z" fill="#50565B"/><path d=" M 142.779 88.881 C 142.779 86.199 142.655 83.487 142.53 80.806 C 144.089 80.9 145.678 80.962 147.238 80.962 C 148.797 80.962 150.386 80.806 151.945 80.806 C 159.241 80.806 162.233 84.703 162.233 91.125 C 162.233 99.449 155.811 102.317 150.885 102.317 C 149.482 102.317 148.111 102.162 146.707 102.162 C 145.305 102.162 143.932 102.224 142.529 102.317 C 142.654 99.636 142.778 96.923 142.778 94.243 L 142.778 88.881 Z M 145.335 94.244 C 145.335 96.457 145.397 98.702 145.523 100.853 C 146.396 101.04 148.017 101.165 149.607 101.165 C 154.19 101.165 159.178 99.356 159.178 91.126 C 159.178 83.894 155.437 82.116 150.324 82.116 C 148.485 82.116 146.802 82.271 145.523 82.428 C 145.398 84.423 145.335 86.637 145.335 88.882 L 145.335 94.244 Z" fill="#50565B"/><path d=" M 166.151 88.85 C 166.151 86.168 166.026 83.456 165.901 80.806 C 167.772 80.9 169.612 80.962 171.482 80.962 C 173.352 80.962 175.192 80.9 177.031 80.806 C 176.969 81.118 176.938 81.43 176.938 81.742 C 176.938 82.054 176.969 82.365 177.031 82.678 C 174.413 82.49 172.885 82.272 168.832 82.272 C 168.801 83.613 168.708 84.705 168.708 86.232 C 168.708 87.853 168.738 89.568 168.738 90.347 C 172.418 90.347 174.475 90.191 176.314 90.035 C 176.252 90.347 176.221 90.689 176.221 91.002 C 176.221 91.314 176.251 91.625 176.314 91.937 C 174.163 91.719 170.235 91.657 168.738 91.657 C 168.708 92.405 168.708 93.184 168.708 96.178 C 168.708 98.546 168.738 100.074 168.77 100.854 C 171.544 100.854 175.224 100.823 177.188 100.449 C 177.126 100.729 177.094 101.135 177.094 101.415 C 177.094 101.696 177.125 102.039 177.188 102.319 C 175.348 102.225 173.478 102.164 171.576 102.164 C 169.675 102.164 167.805 102.226 165.902 102.319 C 166.027 99.607 166.152 96.894 166.152 94.214 L 166.152 88.85 Z" fill="#50565B"/><path d=" M 197.394 80.806 C 197.924 80.9 198.485 80.962 199.016 80.962 C 199.545 80.962 200.108 80.9 200.637 80.806 C 202.476 86.325 205.125 92.934 207.745 99.232 C 210.019 94.181 213.513 84.89 214.822 80.806 C 215.195 80.9 215.601 80.962 215.974 80.962 C 216.349 80.962 216.754 80.9 217.128 80.806 C 213.886 87.977 210.892 95.148 208.149 102.318 C 207.805 102.224 207.462 102.163 207.12 102.163 C 206.778 102.163 206.372 102.225 206.092 102.318 C 204.222 97.174 200.419 87.977 197.394 80.806 Z" fill="#50565B"/><path d=" M 240.94 88.881 C 240.94 86.199 240.815 83.487 240.691 80.806 C 241.22 80.9 241.719 80.962 242.217 80.962 C 242.717 80.962 243.216 80.9 243.748 80.806 C 243.622 83.488 243.498 86.2 243.498 88.881 C 243.498 94.118 243.56 97.797 243.592 100.853 C 246.524 100.853 249.08 100.853 252.197 100.448 C 252.103 100.76 252.041 101.071 252.041 101.384 C 252.041 101.696 252.103 102.007 252.197 102.319 C 250.297 102.225 248.362 102.164 246.461 102.164 C 244.528 102.164 242.623 102.226 240.69 102.319 C 240.814 99.638 240.939 96.925 240.939 94.245 L 240.939 88.881 Z" fill="#50565B"/><path d=" M 291.717 102.723 C 286.978 97.143 281.304 91.157 275.972 85.483 C 275.942 86.636 275.88 88.507 275.88 91.812 C 275.88 94.493 276.004 101.071 276.159 102.318 C 275.816 102.224 275.442 102.163 275.068 102.163 C 274.694 102.163 274.32 102.225 273.915 102.318 C 274.165 100.853 274.569 92.872 274.569 88.756 C 274.569 84.827 274.569 81.804 274.476 80.401 L 274.974 80.401 C 280.056 85.92 286.947 93.433 290.749 97.268 C 290.749 91.687 290.749 85.608 290.5 80.806 C 290.843 80.9 291.217 80.962 291.56 80.962 C 291.904 80.962 292.214 80.9 292.558 80.806 C 292.37 82.646 292.059 88.819 292.059 91.25 C 292.059 94.43 292.121 101.32 292.153 102.723 L 291.717 102.723 Z" fill="#50565B"/><path d=" M 315 100.946 C 314.221 101.57 311.633 102.723 308.516 102.723 C 301.937 102.723 297.136 98.639 297.136 91.562 C 297.136 84.485 301.937 80.401 308.827 80.401 C 311.509 80.401 313.909 81.055 315.592 81.835 C 315.28 82.397 315.063 83.612 314.938 84.268 L 314.75 84.33 C 313.877 83.364 311.758 81.557 308.827 81.557 C 303.932 81.557 300.191 84.643 300.191 91.564 C 300.191 98.485 303.932 101.572 308.827 101.572 C 311.789 101.572 313.971 99.888 315.156 98.985 L 315.28 99.109 L 315 100.946 Z" fill="#50565B"/><path d=" M 320.461 88.881 C 320.461 86.199 320.335 83.487 320.211 80.806 C 320.74 80.9 321.24 80.962 321.738 80.962 C 322.237 80.962 322.735 80.9 323.266 80.806 C 323.14 83.488 323.016 86.2 323.016 88.881 L 323.016 94.243 C 323.016 96.924 323.14 99.637 323.266 102.317 C 322.735 102.223 322.237 102.162 321.738 102.162 C 321.24 102.162 320.74 102.224 320.211 102.317 C 320.335 99.636 320.461 96.923 320.461 94.243 L 320.461 88.881 Z" fill="#50565B"/><g><path d=" M 332.522 67.841 C 332.522 66.488 333.619 65.393 334.971 65.393 C 336.323 65.393 337.419 66.489 337.419 67.841 C 337.419 69.193 336.322 70.289 334.971 70.289 C 333.619 70.29 332.522 69.194 332.522 67.841 L 332.522 67.841 Z" fill="#50565B"/><path d=" M 340.977 61.902 L 337.081 52.548 L 333.089 61.902 C 331.78 65.113 330.596 68.293 330.066 70.257 C 329.661 70.163 329.287 70.101 328.914 70.101 C 328.539 70.101 328.165 70.163 327.759 70.257 C 331.096 62.961 334.338 55.696 337.518 48.339 L 338.112 48.339 C 341.166 55.572 345.843 66.921 347.495 70.257 C 346.934 70.163 346.403 70.101 345.844 70.101 C 345.282 70.101 344.753 70.163 344.192 70.257 C 343.596 68.106 342.098 64.676 340.977 61.902 Z" fill="#50565B"/></g><g><path d=" M 332.625 99.675 C 332.625 98.323 333.722 97.227 335.073 97.227 C 336.426 97.227 337.522 98.324 337.522 99.675 C 337.522 101.028 336.425 102.124 335.073 102.124 C 333.721 102.125 332.625 101.028 332.625 99.675 L 332.625 99.675 Z" fill="#50565B"/><path d=" M 341.08 93.736 L 337.183 84.382 L 333.193 93.736 C 331.884 96.947 330.699 100.127 330.17 102.091 C 329.764 101.997 329.391 101.935 329.017 101.935 C 328.641 101.935 328.268 101.997 327.862 102.091 C 331.199 94.795 334.441 87.53 337.621 80.173 L 338.214 80.173 C 341.269 87.406 345.946 98.755 347.597 102.091 C 347.037 101.997 346.507 101.935 345.947 101.935 C 345.385 101.935 344.855 101.997 344.295 102.091 C 343.698 99.94 342.202 96.51 341.08 93.736 Z" fill="#50565B"/></g><g><path d=" M 221.778 99.675 C 221.778 98.323 222.876 97.227 224.227 97.227 C 225.578 97.227 226.676 98.324 226.676 99.675 C 226.676 101.028 225.578 102.124 224.227 102.124 C 222.876 102.124 221.778 101.028 221.778 99.675 L 221.778 99.675 Z" fill="#50565B"/><path d=" M 230.234 93.736 L 226.337 84.382 L 222.347 93.736 C 221.037 96.947 219.853 100.127 219.323 102.091 C 218.918 101.997 218.544 101.935 218.17 101.935 C 217.795 101.935 217.421 101.997 217.016 102.091 C 220.353 94.795 223.594 87.53 226.774 80.173 L 227.368 80.173 C 230.423 87.406 235.1 98.755 236.751 102.091 C 236.191 101.997 235.66 101.935 235.101 101.935 C 234.539 101.935 234.009 101.997 233.448 102.091 C 232.852 99.94 231.355 96.51 230.234 93.736 Z" fill="#50565B"/></g><path d=" M 300.487 25.522 C 300.487 23.371 300.455 21.219 300.393 19.068 C 298.242 19.068 295.466 19.193 293.721 19.411 C 293.815 19.099 293.877 18.757 293.877 18.414 C 293.877 18.102 293.815 17.79 293.721 17.447 C 296.402 17.541 299.083 17.603 301.765 17.603 C 304.446 17.603 307.127 17.541 309.807 17.447 C 309.715 17.79 309.652 18.102 309.652 18.445 C 309.652 18.757 309.715 19.099 309.807 19.411 C 308.063 19.193 305.287 19.068 303.136 19.068 C 303.074 21.219 303.042 23.371 303.042 25.522 L 303.042 30.884 C 303.042 33.565 303.168 36.278 303.292 38.958 C 302.762 38.864 302.263 38.803 301.765 38.803 C 301.266 38.803 300.766 38.865 300.237 38.958 C 300.362 36.277 300.487 33.564 300.487 30.884 L 300.487 25.522 Z" fill="#50565B"/><path d=" M 338.17 25.522 C 338.17 23.371 338.139 21.219 338.076 19.068 C 335.926 19.068 333.15 19.193 331.405 19.411 C 331.499 19.099 331.561 18.757 331.561 18.414 C 331.561 18.102 331.499 17.79 331.405 17.447 C 334.086 17.541 336.767 17.603 339.449 17.603 C 342.13 17.603 344.811 17.541 347.492 17.447 C 347.399 17.79 347.336 18.102 347.336 18.445 C 347.336 18.757 347.399 19.099 347.492 19.411 C 345.746 19.193 342.971 19.068 340.82 19.068 C 340.758 21.219 340.726 23.371 340.726 25.522 L 340.726 30.884 C 340.726 33.565 340.852 36.278 340.976 38.958 C 340.447 38.864 339.947 38.803 339.449 38.803 C 338.95 38.803 338.451 38.865 337.921 38.958 C 338.047 36.277 338.17 33.564 338.17 30.884 L 338.17 25.522 Z" fill="#50565B"/><path d=" M 265.27 79.045 L 261.288 75.116 C 260.909 74.739 260.53 74.3 260.088 73.985 C 259.959 73.859 259.835 73.828 259.677 73.765 C 259.139 73.639 258.57 73.92 258.382 74.424 C 258.287 74.707 258.287 74.988 258.413 75.273 C 258.601 75.587 258.918 75.746 259.202 75.965 L 264.164 79.044 L 265.27 79.044 Z M 259.993 82.315 L 262.425 82.315 L 265.588 82.378 C 266.537 82.44 267.482 82.536 268.432 82.724 C 268.4 82.41 268.335 82.095 268.335 81.78 C 268.335 81.468 268.399 81.184 268.432 80.838 L 257.214 80.838 L 257.214 102.246 L 268.622 102.246 C 268.587 101.931 268.524 101.619 268.524 101.305 C 268.524 100.99 268.586 100.706 268.622 100.36 C 267.643 100.517 266.692 100.613 265.713 100.644 C 263.817 100.706 261.922 100.832 259.993 100.77 L 259.993 91.589 L 264.89 91.589 C 265.84 91.589 266.754 91.716 267.705 91.746 C 267.673 91.402 267.607 91.118 267.607 90.866 C 267.607 90.584 267.672 90.301 267.705 90.05 C 266.754 90.081 265.84 90.205 264.89 90.205 L 259.993 90.205 L 259.993 82.315 Z" fill="#50565B" fill-rule="evenodd"/><path d=" M 241.491 47.35 L 237.506 43.42 C 237.128 43.044 236.751 42.602 236.308 42.289 C 236.179 42.163 236.054 42.133 235.896 42.07 C 235.359 41.944 234.79 42.225 234.601 42.728 C 234.505 43.011 234.505 43.293 234.631 43.577 C 234.819 43.892 235.137 44.051 235.42 44.269 L 240.384 47.349 L 241.491 47.349 Z M 236.211 50.622 L 238.643 50.622 L 241.805 50.683 C 242.753 50.745 243.7 50.842 244.65 51.029 C 244.619 50.716 244.554 50.4 244.554 50.085 C 244.554 49.773 244.618 49.489 244.65 49.144 L 233.432 49.144 L 233.432 70.553 L 244.839 70.553 C 244.807 70.238 244.744 69.925 244.744 69.611 C 244.744 69.295 244.806 69.011 244.839 68.665 C 243.861 68.824 242.909 68.918 241.929 68.949 C 240.035 69.011 238.139 69.138 236.211 69.078 L 236.211 59.896 L 241.107 59.896 C 242.06 59.896 242.974 60.02 243.922 60.051 C 243.892 59.705 243.824 59.424 243.824 59.174 C 243.824 58.891 243.891 58.607 243.922 58.356 C 242.974 58.387 242.06 58.512 241.107 58.512 L 236.211 58.512 L 236.211 50.622 Z" fill="#50565B" fill-rule="evenodd"/><path d=" M 315.678 36.105 C 315.678 34.754 316.781 33.659 318.137 33.659 C 319.498 33.659 320.597 34.755 320.597 36.105 C 320.597 37.457 319.498 38.551 318.137 38.551 C 316.781 38.551 315.678 37.457 315.678 36.105 Z M 320.222 16.801 L 320.854 16.801 L 329.809 37.534 L 330.347 38.664 C 329.809 38.602 329.274 38.57 328.736 38.57 C 328.171 38.57 327.571 38.57 327.003 38.664 L 326.72 37.755 L 325.299 33.991 L 323.757 30.29 L 319.788 20.823 L 315.743 30.29 C 314.643 33.049 313.507 35.81 312.655 38.664 C 312.307 38.57 311.928 38.57 311.551 38.57 C 311.174 38.57 310.763 38.602 310.385 38.664 L 320.222 16.801 Z" fill="#50565B"/></g></g></g></g></svg>